<?xml version="1.0" encoding="UTF-8" standalone="no"?>
<!-- Created with Inkscape (http://www.inkscape.org/) -->

<svg
   xmlns:dc="http://purl.org/dc/elements/1.1/"
   xmlns:cc="http://creativecommons.org/ns#"
   xmlns:rdf="http://www.w3.org/1999/02/22-rdf-syntax-ns#"
   xmlns:svg="http://www.w3.org/2000/svg"
   xmlns="http://www.w3.org/2000/svg"
   xmlns:sodipodi="http://sodipodi.sourceforge.net/DTD/sodipodi-0.dtd"
   xmlns:inkscape="http://www.inkscape.org/namespaces/inkscape"
   version="1.1"
   id="svg2"
   xml:space="preserve"
   width="20"
   height="20"
   viewBox="0 0 20 20"
   sodipodi:docname="facebook.svg"
   inkscape:version="0.92.5 (2060ec1f9f, 2020-04-08)"><metadata
     id="metadata8"><rdf:RDF><cc:Work
         rdf:about=""><dc:format>image/svg+xml</dc:format><dc:type
           rdf:resource="http://purl.org/dc/dcmitype/StillImage" /><dc:title></dc:title></cc:Work></rdf:RDF></metadata><defs
     id="defs6"><clipPath
       clipPathUnits="userSpaceOnUse"
       id="clipPath18"><path
         d="M 0,88.016 H 88.016 V 0 H 0 Z"
         id="path16"
         inkscape:connector-curvature="0" /></clipPath></defs><sodipodi:namedview
     pagecolor="#ffffff"
     bordercolor="#666666"
     borderopacity="1"
     objecttolerance="10"
     gridtolerance="10"
     guidetolerance="10"
     inkscape:pageopacity="0"
     inkscape:pageshadow="2"
     inkscape:window-width="1225"
     inkscape:window-height="480"
     id="namedview4"
     showgrid="false"
     inkscape:zoom="11.37591"
     inkscape:cx="7.6328798"
     inkscape:cy="8.5729248"
     inkscape:window-x="0"
     inkscape:window-y="0"
     inkscape:window-maximized="0"
     inkscape:current-layer="g10" /><g
     id="g10"
     inkscape:groupmode="layer"
     inkscape:label="Artwork 27"
     transform="matrix(1.3333333,0,0,-1.3333333,0,20.000003)"><g
       id="g12"
       style="opacity:0.4"
       transform="matrix(0.17042845,0,0,0.17042845,9.9697193e-4,0.00131416)"><g
         id="g14"
         clip-path="url(#clipPath18)"><g
           id="g20"
           transform="translate(2.3023,35.829)"><path
             d="M 0,0 C -4.517,23.034 10.493,45.367 33.526,49.885 56.56,54.402 78.894,39.392 83.411,16.358 87.929,-6.675 72.918,-29.009 49.885,-33.526 26.852,-38.044 4.518,-23.034 0,0 Z"
             style="fill:none;stroke:#212226;stroke-width:3;stroke-linecap:butt;stroke-linejoin:miter;stroke-miterlimit:10;stroke-dasharray:none;stroke-opacity:1"
             id="path22"
             inkscape:connector-curvature="0" /></g><g
           id="g24"
           transform="translate(56.8584,69.6987)"><path
             d="m 0,0 -6.666,0.01 c -7.488,0 -12.329,-4.966 -12.329,-12.65 v -5.834 h -6.703 c -0.577,0 -1.047,-0.467 -1.047,-1.047 v -8.452 c 0,-0.576 0.47,-1.047 1.047,-1.047 h 6.703 v -21.324 c 0,-0.577 0.47,-1.047 1.049,-1.047 h 8.742 c 0.579,0 1.049,0.47 1.049,1.047 v 21.324 h 7.836 c 0.58,0 1.048,0.471 1.048,1.047 l 0.004,8.452 c 0,0.277 -0.112,0.543 -0.308,0.742 -0.196,0.196 -0.462,0.305 -0.741,0.305 h -7.839 v 4.946 c 0,2.376 0.567,3.582 3.661,3.582 l 4.492,0.003 c 0.579,0 1.046,0.47 1.046,1.047 V -1.05 C 1.044,-0.47 0.577,-0.003 0,0"
             style="fill:#212226;fill-opacity:1;fill-rule:nonzero;stroke:none"
             id="path26"
             inkscape:connector-curvature="0" /></g></g></g></g></svg>