<?xml version="1.0" encoding="UTF-8" standalone="no"?>
<!-- Created with Inkscape (http://www.inkscape.org/) -->

<svg
   xmlns:dc="http://purl.org/dc/elements/1.1/"
   xmlns:cc="http://creativecommons.org/ns#"
   xmlns:rdf="http://www.w3.org/1999/02/22-rdf-syntax-ns#"
   xmlns:svg="http://www.w3.org/2000/svg"
   xmlns="http://www.w3.org/2000/svg"
   xmlns:sodipodi="http://sodipodi.sourceforge.net/DTD/sodipodi-0.dtd"
   xmlns:inkscape="http://www.inkscape.org/namespaces/inkscape"
   version="1.1"
   id="svg2"
   xml:space="preserve"
   width="20"
   height="20"
   viewBox="0 0 20 20"
   sodipodi:docname="instagram.svg"
   inkscape:version="0.92.5 (2060ec1f9f, 2020-04-08)"><metadata
     id="metadata8"><rdf:RDF><cc:Work
         rdf:about=""><dc:format>image/svg+xml</dc:format><dc:type
           rdf:resource="http://purl.org/dc/dcmitype/StillImage" /><dc:title></dc:title></cc:Work></rdf:RDF></metadata><defs
     id="defs6"><clipPath
       clipPathUnits="userSpaceOnUse"
       id="clipPath18"><path
         d="M 0,88 H 88 V 0 H 0 Z"
         id="path16"
         inkscape:connector-curvature="0" /></clipPath></defs><sodipodi:namedview
     pagecolor="#ffffff"
     bordercolor="#666666"
     borderopacity="1"
     objecttolerance="10"
     gridtolerance="10"
     guidetolerance="10"
     inkscape:pageopacity="0"
     inkscape:pageshadow="2"
     inkscape:window-width="982"
     inkscape:window-height="480"
     id="namedview4"
     showgrid="false"
     inkscape:zoom="22.755983"
     inkscape:cx="10.565082"
     inkscape:cy="8.4254772"
     inkscape:window-x="600"
     inkscape:window-y="171"
     inkscape:window-maximized="0"
     inkscape:current-layer="g10" /><g
     id="g10"
     inkscape:groupmode="layer"
     inkscape:label="Artwork 30"
     transform="matrix(1.3333333,0,0,-1.3333333,0,20.000002)"><g
       id="g12"
       style="opacity:0.4"
       transform="scale(0.17045455)"><g
         id="g14"
         clip-path="url(#clipPath18)"><g
           id="g20"
           transform="translate(86.5,44)"><path
             d="M 0,0 C 0,-23.473 -19.028,-42.5 -42.5,-42.5 -65.972,-42.5 -85,-23.473 -85,0 -85,23.472 -65.972,42.5 -42.5,42.5 -19.028,42.5 0,23.472 0,0 Z"
             style="fill:none;stroke:#212226;stroke-width:3;stroke-linecap:butt;stroke-linejoin:miter;stroke-miterlimit:10;stroke-dasharray:none;stroke-opacity:1"
             id="path22"
             inkscape:connector-curvature="0" /></g><g
           id="g24"
           transform="translate(44,67.7998)"><path
             d="m 0,0 c -6.464,0 -7.274,-0.027 -9.813,-0.143 -2.533,-0.116 -4.263,-0.518 -5.777,-1.106 -1.565,-0.608 -2.892,-1.422 -4.215,-2.745 -1.323,-1.323 -2.137,-2.651 -2.745,-4.216 -0.589,-1.514 -0.991,-3.244 -1.107,-5.777 -0.115,-2.538 -0.143,-3.349 -0.143,-9.813 0,-6.464 0.028,-7.274 0.143,-9.812 0.116,-2.534 0.518,-4.264 1.107,-5.778 0.608,-1.565 1.422,-2.892 2.745,-4.215 1.323,-1.324 2.65,-2.137 4.215,-2.746 1.514,-0.587 3.244,-0.99 5.777,-1.106 2.539,-0.115 3.349,-0.143 9.813,-0.143 6.464,0 7.274,0.028 9.813,0.143 2.533,0.116 4.263,0.519 5.777,1.106 1.565,0.609 2.892,1.422 4.215,2.746 1.323,1.323 2.137,2.65 2.745,4.215 0.589,1.514 0.991,3.244 1.107,5.778 0.115,2.538 0.143,3.348 0.143,9.812 0,6.464 -0.028,7.275 -0.143,9.813 -0.116,2.533 -0.518,4.263 -1.107,5.777 -0.608,1.565 -1.422,2.893 -2.745,4.216 -1.323,1.323 -2.65,2.137 -4.215,2.745 -1.514,0.588 -3.244,0.99 -5.777,1.106 C 7.274,-0.027 6.464,0 0,0 m 0,-4.288 c 6.355,0 7.107,-0.024 9.617,-0.139 2.321,-0.105 3.581,-0.493 4.42,-0.819 1.11,-0.432 1.903,-0.948 2.736,-1.78 0.833,-0.833 1.349,-1.626 1.781,-2.738 0.325,-0.838 0.713,-2.098 0.819,-4.419 0.114,-2.509 0.139,-3.262 0.139,-9.617 0,-6.354 -0.025,-7.107 -0.139,-9.617 -0.106,-2.32 -0.494,-3.581 -0.819,-4.419 -0.432,-1.111 -0.948,-1.904 -1.781,-2.737 -0.833,-0.833 -1.626,-1.349 -2.736,-1.781 -0.839,-0.326 -2.099,-0.713 -4.42,-0.819 -2.509,-0.114 -3.262,-0.139 -9.617,-0.139 -6.355,0 -7.108,0.025 -9.617,0.139 -2.321,0.106 -3.581,0.493 -4.42,0.819 -1.11,0.432 -1.903,0.948 -2.736,1.781 -0.833,0.833 -1.349,1.626 -1.781,2.737 -0.325,0.838 -0.713,2.099 -0.819,4.419 -0.114,2.51 -0.139,3.263 -0.139,9.617 0,6.355 0.025,7.108 0.139,9.617 0.106,2.321 0.494,3.581 0.819,4.419 0.432,1.112 0.948,1.905 1.781,2.738 0.833,0.832 1.626,1.348 2.736,1.78 0.839,0.326 2.099,0.714 4.42,0.819 2.51,0.115 3.262,0.139 9.617,0.139"
             style="fill:#212226;fill-opacity:1;fill-rule:nonzero;stroke:none"
             id="path26"
             inkscape:connector-curvature="0" /></g><g
           id="g28"
           transform="translate(44,36.0664)"><path
             d="m 0,0 c -4.381,0 -7.933,3.552 -7.933,7.934 0,4.381 3.552,7.933 7.933,7.933 4.381,0 7.933,-3.552 7.933,-7.933 C 7.933,3.552 4.381,0 0,0 m 0,20.155 c -6.75,0 -12.222,-5.471 -12.222,-12.221 0,-6.75 5.472,-12.222 12.222,-12.222 6.75,0 12.222,5.472 12.222,12.222 0,6.75 -5.472,12.221 -12.222,12.221"
             style="fill:#212226;fill-opacity:1;fill-rule:nonzero;stroke:none"
             id="path30"
             inkscape:connector-curvature="0" /></g><g
           id="g32"
           transform="translate(59.5605,56.7041)"><path
             d="m 0,0 c 0,-1.577 -1.279,-2.855 -2.856,-2.855 -1.578,0 -2.856,1.278 -2.856,2.855 0,1.578 1.278,2.856 2.856,2.856 C -1.279,2.856 0,1.578 0,0"
             style="fill:#212226;fill-opacity:1;fill-rule:nonzero;stroke:none"
             id="path34"
             inkscape:connector-curvature="0" /></g></g></g></g></svg>