<?xml version="1.0" encoding="UTF-8" standalone="no"?>
<svg
   xmlns:dc="http://purl.org/dc/elements/1.1/"
   xmlns:cc="http://creativecommons.org/ns#"
   xmlns:rdf="http://www.w3.org/1999/02/22-rdf-syntax-ns#"
   xmlns:svg="http://www.w3.org/2000/svg"
   xmlns="http://www.w3.org/2000/svg"
   viewBox="0 0 60.000001 60.000001"
   height="60"
   width="60"
   xml:space="preserve"
   id="svg2"
   version="1.1"><metadata
     id="metadata8"><rdf:RDF><cc:Work
         rdf:about=""><dc:format>image/svg+xml</dc:format><dc:type
           rdf:resource="http://purl.org/dc/dcmitype/StillImage" /><dc:title></dc:title></cc:Work></rdf:RDF></metadata><defs
     id="defs6"><clipPath
       id="clipPath18"
       clipPathUnits="userSpaceOnUse"><path
         id="path16"
         d="M 0,88 H 88 V 0 H 0 Z" /></clipPath></defs><g
     transform="matrix(1.3333333,0,0,-1.3333333,0,60)"
     id="g10"><g
       transform="scale(0.51136365)"
       style="opacity:0.4"
       id="g12"><g
         clip-path="url(#clipPath18)"
         id="g14"><g
           transform="translate(86.5,44)"
           id="g20"><path
             id="path22"
             style="fill:none;stroke:#212226;stroke-width:3;stroke-linecap:butt;stroke-linejoin:miter;stroke-miterlimit:10;stroke-dasharray:none;stroke-opacity:1"
             d="M 0,0 C 0,-23.473 -19.028,-42.5 -42.5,-42.5 -65.972,-42.5 -85,-23.473 -85,0 -85,23.472 -65.972,42.5 -42.5,42.5 -19.028,42.5 0,23.472 0,0 Z" /></g><g
           transform="translate(66.8281,24.3252)"
           id="g24"><path
             id="path26"
             style="fill:#000001;fill-opacity:1;fill-rule:evenodd;stroke:none"
             d="m 0,0 h -8.833 c -0.372,0 -0.672,0.293 -0.672,0.653 v 14.653 c 0,1.893 -0.358,3.342 -1.087,4.287 -0.667,0.864 -1.688,1.32 -3.075,1.32 -1.547,0 -2.717,-0.488 -3.493,-1.386 -0.823,-0.953 -1.244,-2.39 -1.244,-4.221 V 0.653 c 0,-0.36 -0.3,-0.653 -0.671,-0.653 h -8.514 c -0.371,0 -0.672,0.293 -0.672,0.653 v 27.911 c 0,0.362 0.301,0.655 0.672,0.655 h 8.514 c 0.371,0 0.671,-0.293 0.671,-0.655 v -1.826 c 1.384,1.445 3.962,3.333 7.97,3.333 3.336,0 6.195,-1.042 8.188,-3.16 1.841,-1.956 2.918,-4.81 2.918,-8.585 V 0.653 C 0.672,0.293 0.371,0 0,0 m -37.747,31.567 c -1.634,0 -3.115,0.651 -4.187,1.703 -1.071,1.05 -1.734,2.501 -1.734,4.101 0,1.6 0.663,3.05 1.734,4.101 1.072,1.051 2.553,1.703 4.187,1.703 1.634,0 3.115,-0.652 4.186,-1.703 1.072,-1.051 1.735,-2.501 1.735,-4.101 0,-1.6 -0.663,-3.051 -1.734,-4.101 -1.072,-1.052 -2.553,-1.703 -4.187,-1.703 M -33.265,0 h -8.878 c -0.371,0 -0.671,0.293 -0.671,0.653 v 27.911 c 0,0.362 0.3,0.655 0.671,0.655 h 8.878 c 0.37,0 0.671,-0.293 0.671,-0.655 V 0.653 C -32.594,0.293 -32.895,0 -33.265,0" /></g></g></g></g></svg>