<?xml version="1.0" encoding="UTF-8" standalone="no"?>
<!-- Created with Inkscape (http://www.inkscape.org/) -->

<svg
   xmlns:dc="http://purl.org/dc/elements/1.1/"
   xmlns:cc="http://creativecommons.org/ns#"
   xmlns:rdf="http://www.w3.org/1999/02/22-rdf-syntax-ns#"
   xmlns:svg="http://www.w3.org/2000/svg"
   xmlns="http://www.w3.org/2000/svg"
   xmlns:sodipodi="http://sodipodi.sourceforge.net/DTD/sodipodi-0.dtd"
   xmlns:inkscape="http://www.inkscape.org/namespaces/inkscape"
   version="1.1"
   id="svg2"
   xml:space="preserve"
   width="20"
   height="20"
   viewBox="0 0 20 20"
   sodipodi:docname="linkedin.svg"
   inkscape:version="0.92.5 (2060ec1f9f, 2020-04-08)"><metadata
     id="metadata8"><rdf:RDF><cc:Work
         rdf:about=""><dc:format>image/svg+xml</dc:format><dc:type
           rdf:resource="http://purl.org/dc/dcmitype/StillImage" /><dc:title /></cc:Work></rdf:RDF></metadata><defs
     id="defs6"><clipPath
       clipPathUnits="userSpaceOnUse"
       id="clipPath18"><path
         d="M 0,88 H 88 V 0 H 0 Z"
         id="path16"
         inkscape:connector-curvature="0" /></clipPath></defs><sodipodi:namedview
     pagecolor="#ffffff"
     bordercolor="#666666"
     borderopacity="1"
     objecttolerance="10"
     gridtolerance="10"
     guidetolerance="10"
     inkscape:pageopacity="0"
     inkscape:pageshadow="2"
     inkscape:window-width="1330"
     inkscape:window-height="480"
     id="namedview4"
     showgrid="false"
     inkscape:zoom="11.377991"
     inkscape:cx="0.53331881"
     inkscape:cy="9.5335885"
     inkscape:window-x="561"
     inkscape:window-y="46"
     inkscape:window-maximized="0"
     inkscape:current-layer="g10" /><g
     id="g10"
     inkscape:groupmode="layer"
     inkscape:label="Artwork 28"
     transform="matrix(1.3333333,0,0,-1.3333333,0,20.000002)"><g
       id="g12"
       style="opacity:0.4"
       transform="scale(0.17045455)"><g
         id="g14"
         clip-path="url(#clipPath18)"><g
           id="g20"
           transform="translate(86.5,44)"><path
             d="M 0,0 C 0,-23.473 -19.028,-42.5 -42.5,-42.5 -65.972,-42.5 -85,-23.473 -85,0 -85,23.472 -65.972,42.5 -42.5,42.5 -19.028,42.5 0,23.472 0,0 Z"
             style="fill:none;stroke:#212226;stroke-width:3;stroke-linecap:butt;stroke-linejoin:miter;stroke-miterlimit:10;stroke-dasharray:none;stroke-opacity:1"
             id="path22"
             inkscape:connector-curvature="0" /></g><g
           id="g24"
           transform="translate(66.8281,24.3252)"><path
             d="m 0,0 h -8.833 c -0.372,0 -0.672,0.293 -0.672,0.653 v 14.653 c 0,1.893 -0.358,3.342 -1.087,4.287 -0.667,0.864 -1.688,1.32 -3.075,1.32 -1.547,0 -2.717,-0.488 -3.493,-1.386 -0.823,-0.953 -1.244,-2.39 -1.244,-4.221 V 0.653 c 0,-0.36 -0.3,-0.653 -0.671,-0.653 h -8.514 c -0.371,0 -0.672,0.293 -0.672,0.653 v 27.911 c 0,0.362 0.301,0.655 0.672,0.655 h 8.514 c 0.371,0 0.671,-0.293 0.671,-0.655 v -1.826 c 1.384,1.445 3.962,3.333 7.97,3.333 3.336,0 6.195,-1.042 8.188,-3.16 1.841,-1.956 2.918,-4.81 2.918,-8.585 V 0.653 C 0.672,0.293 0.371,0 0,0 m -37.747,31.567 c -1.634,0 -3.115,0.651 -4.187,1.703 -1.071,1.05 -1.734,2.501 -1.734,4.101 0,1.6 0.663,3.05 1.734,4.101 1.072,1.051 2.553,1.703 4.187,1.703 1.634,0 3.115,-0.652 4.186,-1.703 1.072,-1.051 1.735,-2.501 1.735,-4.101 0,-1.6 -0.663,-3.051 -1.734,-4.101 -1.072,-1.052 -2.553,-1.703 -4.187,-1.703 M -33.265,0 h -8.878 c -0.371,0 -0.671,0.293 -0.671,0.653 v 27.911 c 0,0.362 0.3,0.655 0.671,0.655 h 8.878 c 0.37,0 0.671,-0.293 0.671,-0.655 V 0.653 C -32.594,0.293 -32.895,0 -33.265,0"
             style="fill:#212226;fill-opacity:1;fill-rule:evenodd;stroke:none"
             id="path26"
             inkscape:connector-curvature="0" /></g></g></g></g></svg>