<?xml version="1.0" encoding="UTF-8" standalone="no"?>
<svg
   xmlns:dc="http://purl.org/dc/elements/1.1/"
   xmlns:cc="http://creativecommons.org/ns#"
   xmlns:rdf="http://www.w3.org/1999/02/22-rdf-syntax-ns#"
   xmlns:svg="http://www.w3.org/2000/svg"
   xmlns="http://www.w3.org/2000/svg"
   viewBox="0 0 70 57.561375"
   height="57.561375"
   width="70"
   xml:space="preserve"
   id="svg2"
   version="1.1"><metadata
     id="metadata8"><rdf:RDF><cc:Work
         rdf:about=""><dc:format>image/svg+xml</dc:format><dc:type
           rdf:resource="http://purl.org/dc/dcmitype/StillImage" /><dc:title></dc:title></cc:Work></rdf:RDF></metadata><defs
     id="defs6"><clipPath
       id="clipPath18"
       clipPathUnits="userSpaceOnUse"><path
         id="path16"
         d="M 0,185.295 H 225.336 V 0 H 0 Z" /></clipPath></defs><g
     transform="matrix(1.3333333,0,0,-1.3333333,0,57.561374)"
     id="g10"><g
       transform="scale(0.23298541)"
       id="g12"><g
         clip-path="url(#clipPath18)"
         id="g14"><g
           transform="translate(188.1643,47.9852)"
           id="g20"><path
             id="path22"
             style="fill:#bf9963;fill-opacity:1;fill-rule:nonzero;stroke:none"
             d="m 0,0 c -2.975,-0.544 -5.979,-0.173 -9.02,1.114 -3.043,1.282 -6.084,3.109 -9.123,5.475 -9.668,7.526 -19.093,15.642 -27.895,24.166 -5.633,5.456 -11.002,8.991 -18.445,11.48 h 2.219 c 2.368,0 4.937,0.166 7.704,0.505 2.768,0.336 5.485,0.885 8.151,1.64 2.666,0.758 5.209,1.683 7.633,2.777 2.42,1.094 4.516,2.401 6.296,3.914 0.706,0.589 1.462,1.39 2.274,2.398 0.805,1.011 1.591,2.21 2.348,3.6 0.756,1.387 1.387,2.922 1.89,4.608 0.507,1.682 0.757,3.491 0.757,5.427 0,2.524 -0.3,4.777 -0.905,6.753 -0.609,1.978 -1.34,3.683 -2.198,5.113 -0.86,1.43 -1.667,2.567 -2.428,3.408 -0.757,0.842 -1.286,1.391 -1.59,1.643 -1.778,1.597 -3.884,2.965 -6.303,4.103 -2.428,1.137 -4.999,2.083 -7.716,2.841 -2.724,0.755 -5.492,1.304 -8.31,1.64 -2.818,0.336 -5.415,0.505 -7.788,0.505 h -12.019 v -1.39 h 12.019 c 2.373,0 5.267,-0.252 8.679,-0.755 3.413,-0.505 6.698,-1.624 9.868,-3.347 3.162,-1.726 5.882,-4.21 8.158,-7.449 2.274,-3.239 3.412,-7.595 3.412,-13.065 0,-4.629 -1.087,-8.457 -3.264,-11.487 -2.177,-3.03 -4.821,-5.43 -7.937,-7.197 -3.115,-1.766 -6.357,-3.011 -9.719,-3.723 -3.365,-0.718 -6.23,-1.072 -8.606,-1.072 h -12.61 v -1.39 c 3.396,-0.406 7.331,-2.099 11.797,-5.069 4.465,-2.976 15.633,-15.137 20.499,-18.919 2.836,-2.164 5.777,-4.361 8.821,-6.589 3.04,-2.232 6.08,-4.257 9.124,-6.083 3.04,-1.827 6.084,-3.382 9.123,-4.664 3.041,-1.287 5.981,-2.129 8.823,-2.535 2.43,-0.405 4.663,-0.405 6.687,0 z" /></g><g
           transform="translate(126.9992,115.8821)"
           id="g24"><path
             id="path26"
             style="fill:#bf9963;fill-opacity:1;fill-rule:nonzero;stroke:none"
             d="m 0,0 c -1.165,2.285 -2.87,4.309 -4.926,5.854 -2.883,2.165 -6.313,3.335 -9.925,3.382 -0.013,0 -0.16,0.003 -0.234,0.003 -3.231,0 -6.335,-0.899 -9.034,-2.609 V 9.239 H -32.81 V 7.835 h 2.568 v -68.292 h -2.568 v -1.404 h 11.103 v 1.404 h -2.415 v 45.923 h 0.003 v 19.47 c 2.643,1.897 5.761,2.899 9.034,2.899 0.069,0 0.207,-0.003 0.207,-0.003 1.897,-0.042 3.7,-0.667 5.216,-1.805 2.224,-1.671 3.54,-4.218 3.611,-6.992 0.003,-0.08 0.003,-0.16 0.003,-0.24 0,-0.079 0,-0.159 -0.003,-0.239 v -6.952 h 7.897 v 0.705 C 1.846,-4.984 1.226,-2.396 0,0" /></g><g
           transform="translate(38.6799,78.6795)"
           id="g28"><path
             id="path30"
             style="fill:#bf9963;fill-opacity:1;fill-rule:nonzero;stroke:none"
             d="m 0,0 -0.874,0.385 c 0.151,-1.046 0.314,-2.073 0.502,-3.045 l 0.701,0.663 C 0.212,-1.345 0.1,-0.683 0,0" /></g><g
           transform="translate(222.8527,111.7781)"
           id="g32"><path
             id="path34"
             style="fill:#bf9963;fill-opacity:1;fill-rule:nonzero;stroke:none"
             d="m 0,0 c -0.199,0 -0.375,0.142 -0.41,0.345 -1.249,7.108 -4.27,14.062 -4.3,14.132 -1.625,4.108 -3.562,8.137 -5.767,11.986 -11.373,19.864 -29.619,34.684 -51.377,41.729 -21.611,6.996 -44.891,5.785 -65.552,-3.41 -0.21,-0.093 -0.457,0.001 -0.551,0.211 -0.094,0.211 10e-4,0.457 0.211,0.551 20.85,9.28 44.341,10.502 66.148,3.442 21.957,-7.11 40.369,-22.064 51.846,-42.109 2.224,-3.883 4.179,-7.947 5.813,-12.08 C -3.915,14.741 -0.854,7.698 0.411,0.489 0.451,0.262 0.3,0.046 0.073,0.006 0.049,0.002 0.024,0 0,0" /></g><g
           transform="translate(85.7648,170.4178)"
           id="g36"><path
             id="path38"
             style="fill:#bf9963;fill-opacity:1;fill-rule:nonzero;stroke:none"
             d="M 0,0 C 2.344,-0.038 4.501,0.911 6.135,2.749 6.771,3.464 7.97,5.101 8.654,6.051 6.33,5.87 4.169,5.477 2.653,3.957 2.024,3.326 1.577,2.551 1.104,1.73 0.767,1.146 0.421,0.547 0,0 m 0.176,-0.836 c -0.36,0 -0.723,0.021 -1.089,0.064 -0.159,0.019 -0.293,0.126 -0.346,0.278 -0.053,0.151 -0.013,0.319 0.1,0.432 0.623,0.62 1.068,1.393 1.54,2.21 C 0.86,2.979 1.356,3.837 2.063,4.545 3.975,6.463 6.664,6.774 9.483,6.943 9.638,6.952 9.795,6.87 9.873,6.729 9.951,6.589 9.941,6.417 9.849,6.286 9.762,6.163 7.707,3.262 6.759,2.195 5.001,0.217 2.694,-0.836 0.176,-0.836" /></g><g
           transform="translate(22.1897,91.7508)"
           id="g40"><path
             id="path42"
             style="fill:#bf9963;fill-opacity:1;fill-rule:nonzero;stroke:none"
             d="m 0,0 c -1.861,0 -3.546,0.504 -5.318,1.035 l -0.374,0.112 c -0.262,0.078 -0.644,0.206 -1.071,0.349 -0.869,0.291 -2.323,0.778 -2.707,0.778 -0.202,0 -0.375,0.144 -0.411,0.343 -0.036,0.198 0.075,0.394 0.264,0.465 1.585,0.597 2.913,1.564 4.42,2.833 0.176,0.148 0.439,0.126 0.588,-0.051 0.148,-0.177 0.126,-0.44 -0.05,-0.588 C -5.856,4.269 -6.95,3.442 -8.151,2.822 -7.685,2.682 -7.128,2.498 -6.497,2.287 -6.082,2.147 -5.71,2.023 -5.454,1.947 L -5.079,1.834 C -3.163,1.261 -1.353,0.717 0.641,0.856 2.679,0.997 4.181,2.175 5.5,3.428 5.715,3.631 6.042,3.897 6.422,4.205 7.173,4.814 8.279,5.712 8.609,6.271 8.157,7.443 6.603,8.308 5.451,8.864 4.958,9.103 4.443,9.283 3.923,9.399 3.697,9.45 3.557,9.673 3.606,9.898 3.657,10.123 3.879,10.264 4.104,10.214 4.688,10.083 5.264,9.882 5.814,9.615 7.27,8.913 8.998,7.908 9.46,6.362 9.487,6.272 9.482,6.175 9.447,6.088 9.172,5.399 8.195,4.57 6.948,3.557 6.582,3.26 6.266,3.003 6.074,2.822 4.71,1.528 3.005,0.183 0.697,0.024 0.462,0.007 0.229,0 0,0" /></g><g
           transform="translate(29.3068,99.7659)"
           id="g44"><path
             id="path46"
             style="fill:#bf9963;fill-opacity:1;fill-rule:nonzero;stroke:none"
             d="m 0,0 c -0.127,0 -0.251,0.057 -0.333,0.165 -0.583,0.768 -1.494,2.083 -2.036,3.005 -0.116,0.199 -0.05,0.455 0.149,0.571 0.199,0.117 0.454,0.05 0.571,-0.148 C -1.124,2.698 -0.236,1.418 0.332,0.669 0.471,0.485 0.435,0.224 0.251,0.084 0.176,0.027 0.087,0 0,0" /></g><g
           transform="translate(40.0412,86.4031)"
           id="g48"><path
             id="path50"
             style="fill:#bf9963;fill-opacity:1;fill-rule:nonzero;stroke:none"
             d="m 0,0 c -0.209,0 -0.389,0.156 -0.414,0.369 -0.146,1.242 -1.546,2.671 -1.56,2.685 -1.09,1.349 -1.989,2.864 -2.858,4.33 l -0.453,0.762 c -0.749,1.249 -1.117,2.269 -1.386,3.014 -0.119,0.328 -0.221,0.612 -0.328,0.837 -0.099,0.209 -0.009,0.457 0.199,0.556 0.208,0.098 0.457,0.01 0.556,-0.199 0.123,-0.261 0.232,-0.562 0.358,-0.911 0.272,-0.753 0.61,-1.689 1.317,-2.868 L -4.114,7.81 C -3.26,6.369 -2.377,4.88 -1.353,3.61 -1.315,3.575 0.235,1.995 0.415,0.466 0.441,0.237 0.278,0.029 0.049,0.003 0.032,0.001 0.017,0 0,0" /></g><g
           transform="translate(13.1936,93.9524)"
           id="g52"><path
             id="path54"
             style="fill:#bf9963;fill-opacity:1;fill-rule:nonzero;stroke:none"
             d="m 0,0 c -0.204,0 -0.383,0.149 -0.413,0.357 -0.033,0.228 0.125,0.44 0.353,0.473 0.068,0.01 6.812,0.999 11.063,2.551 0.526,0.209 5.261,2.038 7.207,1.051 0.335,-0.099 1.878,-0.674 4.035,-3.36 C 22.39,0.893 22.361,0.63 22.182,0.486 22.001,0.342 21.738,0.37 21.595,0.549 19.42,3.258 17.978,3.631 17.964,3.634 17.928,3.643 17.889,3.657 17.857,3.674 16.521,4.401 12.671,3.146 11.301,2.602 6.957,1.015 0.129,0.014 0.06,0.004 0.04,0.001 0.02,0 0,0" /></g><g
           transform="translate(55.0178,133.2322)"
           id="g56"><path
             id="path58"
             style="fill:#bf9963;fill-opacity:1;fill-rule:nonzero;stroke:none"
             d="m 0,0 h 0.006 z m -0.024,-0.834 c -0.104,0 -0.202,0.025 -0.287,0.06 -0.644,0.257 -0.939,1.325 -0.961,1.767 -0.181,0.729 -0.454,1.387 -0.695,1.97 -0.305,0.74 -0.527,1.274 -0.454,1.7 0.04,0.226 0.257,0.379 0.483,0.34 0.227,-0.039 0.379,-0.255 0.34,-0.482 C -1.631,4.333 -1.399,3.775 -1.196,3.283 -0.951,2.691 -0.646,1.955 -0.451,1.147 -0.443,1.114 -0.439,1.08 -0.439,1.045 -0.442,0.794 -0.257,0.276 -0.091,0.076 0.075,0.304 0.353,0.659 0.453,0.766 0.634,0.961 0.836,1.16 1.04,1.362 1.675,1.988 2.331,2.636 2.48,3.331 2.529,3.557 2.752,3.701 2.977,3.651 3.202,3.603 3.345,3.381 3.297,3.156 3.095,2.217 2.348,1.48 1.626,0.768 1.431,0.575 1.238,0.385 1.063,0.196 0.973,0.1 0.606,-0.374 0.549,-0.463 0.375,-0.746 0.167,-0.834 -0.024,-0.834" /></g><g
           transform="translate(51.2785,115.5335)"
           id="g60"><path
             id="path62"
             style="fill:#bf9963;fill-opacity:1;fill-rule:nonzero;stroke:none"
             d="m 0,0 c -0.021,0 -0.04,0.001 -0.061,0.004 -0.228,0.033 -0.385,0.245 -0.353,0.473 l 0.412,2.83 c 0.079,0.585 0.19,1.137 0.297,1.672 0.058,0.286 0.114,0.565 0.163,0.838 0.229,1.311 0.505,2.445 0.749,3.444 l 0.14,0.578 c 0.05,0.205 0.096,0.4 0.14,0.587 0.079,0.334 0.153,0.646 0.235,0.931 l 0.702,2.46 c 0.068,0.258 0.127,0.542 0.183,0.89 0.066,0.312 0.12,0.607 0.173,0.903 0.116,0.646 0.24,1.325 0.452,1.966 0.073,0.219 0.309,0.338 0.528,0.265 C 3.979,17.769 4.097,17.532 4.024,17.313 3.83,16.729 3.713,16.08 3.609,15.508 3.547,15.158 3.491,14.854 3.428,14.553 3.37,14.197 3.306,13.887 3.229,13.597 L 2.523,11.126 C 2.445,10.853 2.375,10.555 2.3,10.235 2.255,10.044 2.208,9.846 2.157,9.641 L 2.018,9.063 C 1.776,8.077 1.504,6.958 1.279,5.672 1.229,5.392 1.172,5.106 1.113,4.815 1.009,4.293 0.9,3.753 0.824,3.19 L 0.412,0.357 C 0.382,0.149 0.204,0 0,0" /></g><g
           transform="translate(40.9914,77.0257)"
           id="g64"><path
             id="path66"
             style="fill:#bf9963;fill-opacity:1;fill-rule:nonzero;stroke:none"
             d="M 0,0 C -0.173,0 -0.334,0.108 -0.395,0.28 -4.2,11.176 2.91,21.891 2.982,21.998 c 0.012,0.02 2.294,3.792 2.551,4.238 0.263,0.456 2.28,3.944 2.28,3.944 0.656,1.176 1.454,2.315 2.367,3.381 0.577,0.691 1.087,1.443 1.581,2.17 0.52,0.768 1.059,1.562 1.677,2.285 0.18,0.212 0.367,0.426 0.552,0.64 0.382,0.437 0.777,0.89 1.114,1.335 0.509,0.642 0.913,1.282 1.339,1.961 0.852,1.382 1.316,2.762 1.448,4.265 0.03,0.471 0.012,0.979 -0.058,1.544 -0.048,0.446 -0.116,1.027 -0.233,1.622 -0.086,0.474 -0.196,0.949 -0.305,1.425 -0.148,0.644 -0.301,1.31 -0.394,1.962 -0.033,0.229 0.126,0.439 0.354,0.472 0.227,0.033 0.439,-0.126 0.473,-0.354 0.087,-0.617 0.237,-1.266 0.38,-1.893 0.113,-0.489 0.225,-0.977 0.312,-1.457 0.121,-0.621 0.193,-1.225 0.242,-1.682 0.075,-0.611 0.096,-1.171 0.061,-1.703 -0.144,-1.645 -0.648,-3.143 -1.539,-4.591 0,-10e-4 -0.034,-0.054 -0.035,-0.055 C 16.729,40.84 16.296,40.15 15.764,39.48 15.414,39.019 15.011,38.556 14.62,38.107 14.437,37.897 14.253,37.686 14.074,37.475 13.484,36.786 12.982,36.046 12.451,35.263 11.946,34.519 11.424,33.749 10.816,33.022 9.936,31.994 9.171,30.901 8.539,29.768 8.535,29.762 6.519,26.275 6.256,25.82 5.995,25.366 3.779,21.704 3.686,21.548 3.604,21.427 -3.272,11.049 0.394,0.555 0.47,0.337 0.354,0.1 0.137,0.023 0.092,0.008 0.045,0 0,0" /></g><g
           transform="translate(37.9172,135.7542)"
           id="g68"><path
             id="path70"
             style="fill:#bf9963;fill-opacity:1;fill-rule:nonzero;stroke:none"
             d="m 0,0 c 0.064,-1.246 0.201,-2.949 0.809,-4.668 1.045,-2.811 3.19,-4.846 6.372,-6.038 2.688,-0.997 5.836,-0.431 7.413,0.333 -0.072,0.407 -0.207,0.827 -0.406,1.253 -0.208,0.48 -0.491,0.958 -0.847,1.43 -0.637,0.843 -1.476,1.635 -2.362,2.231 C 9.566,-4.508 7.825,-3.843 5.981,-3.14 5.636,-3.008 5.289,-2.875 4.943,-2.741 3.182,-2.048 1.375,-1.267 0,0 m 10.373,-12.064 c -1.188,0 -2.398,0.174 -3.483,0.576 -3.42,1.282 -5.73,3.481 -6.866,6.536 -0.727,2.056 -0.818,4.043 -0.878,5.358 -0.012,0.259 -0.023,0.49 -0.037,0.687 -0.013,0.182 0.094,0.353 0.265,0.419 0.171,0.066 0.365,0.013 0.479,-0.131 1.288,-1.635 3.372,-2.549 5.395,-3.345 0.342,-0.133 0.687,-0.265 1.031,-0.396 1.806,-0.69 3.674,-1.402 5.165,-2.407 0.961,-0.646 1.871,-1.505 2.563,-2.42 0.396,-0.525 0.714,-1.061 0.943,-1.591 0.278,-0.598 0.451,-1.201 0.513,-1.785 0.017,-0.166 -0.066,-0.326 -0.211,-0.408 -1.17,-0.656 -2.996,-1.093 -4.879,-1.093" /></g><g
           transform="translate(52.966,124.7303)"
           id="g72"><path
             id="path74"
             style="fill:#bf9963;fill-opacity:1;fill-rule:nonzero;stroke:none"
             d="m 0,0 c -0.03,0 -0.061,0.003 -0.091,0.01 -2.296,0.504 -4.523,1.388 -6.621,2.626 -1.766,1.035 -3.457,2.356 -5.026,3.926 -1.444,1.448 -2.493,2.822 -3.119,3.72 -0.676,0.994 -1.021,1.642 -1.036,1.67 -0.107,0.203 -0.03,0.455 0.174,0.564 0.203,0.107 0.455,0.03 0.564,-0.174 0.004,-0.006 0.341,-0.638 0.985,-1.587 0.605,-0.867 1.621,-2.199 3.023,-3.603 1.518,-1.52 3.153,-2.797 4.858,-3.797 C -4.267,2.162 -2.121,1.31 0.089,0.825 0.313,0.775 0.456,0.553 0.406,0.328 0.364,0.133 0.191,0 0,0" /></g><g
           transform="translate(42.0549,112.3162)"
           id="g76"><path
             id="path78"
             style="fill:#bf9963;fill-opacity:1;fill-rule:nonzero;stroke:none"
             d="m 0,0 c -0.315,0 -0.598,0.023 -0.838,0.076 -4.064,0.889 -5.832,3.411 -5.905,3.518 -0.112,0.164 -0.094,0.385 0.046,0.528 0.756,0.774 1.945,1.532 2.154,1.662 0.837,0.725 2.795,1.994 4.22,2.44 C 2.001,8.969 4.364,8.728 6.572,8.356 7.681,8.164 9.397,7.286 9.952,6.44 10.079,6.247 10.025,5.988 9.833,5.862 9.641,5.735 9.382,5.789 9.255,5.981 8.872,6.564 7.421,7.362 6.432,7.533 4.003,7.942 1.966,8.081 -0.071,7.429 -1.336,7.033 -3.254,5.805 -4.019,5.134 -4.036,5.119 -4.056,5.105 -4.075,5.093 -4.087,5.085 -5.091,4.464 -5.834,3.793 -5.272,3.148 -3.619,1.539 -0.659,0.891 0.327,0.677 2.546,1.047 5.587,1.939 7.115,2.409 8.28,3.367 9.023,4.047 9.193,4.203 9.457,4.191 9.612,4.021 9.769,3.852 9.757,3.587 9.587,3.432 8.784,2.697 7.521,1.66 5.826,1.14 3.952,0.59 1.573,0 0,0" /></g><g
           transform="translate(40.2541,114.8108)"
           id="g80"><path
             id="path82"
             style="fill:#bf9963;fill-opacity:1;fill-rule:nonzero;stroke:none"
             d="M 0,0 C -0.166,0 -0.323,0.1 -0.388,0.264 -0.473,0.478 -0.368,0.72 -0.154,0.805 0.882,1.217 2.043,1.563 3.5,1.896 4.555,2.134 5.64,2.333 6.688,2.524 L 7.279,2.632 C 7.871,2.74 8.492,2.803 9.092,2.863 9.773,2.932 10.418,2.997 11.013,3.121 11.24,3.166 11.459,3.024 11.507,2.798 11.554,2.573 11.409,2.352 11.184,2.304 10.546,2.17 9.849,2.1 9.176,2.033 8.592,1.974 7.988,1.914 7.43,1.812 L 6.838,1.703 C 5.798,1.513 4.722,1.317 3.686,1.082 2.271,0.759 1.148,0.425 0.154,0.03 0.104,0.01 0.052,0 0,0" /></g><g
           transform="translate(23.7629,74.1946)"
           id="g84"><path
             id="path86"
             style="fill:#bf9963;fill-opacity:1;fill-rule:nonzero;stroke:none"
             d="m 0,0 h 0.006 z m -5.68,-1.935 c 3.91,-2.848 8.12,-5.621 12.533,-7.036 2.688,-0.862 9.021,-1.751 12.128,0.739 -1.348,1.17 -6.336,5.345 -10.805,7.169 -2.761,1.126 -5.373,0.894 -8.139,0.647 -1.367,-0.121 -4.41,-0.955 -5.717,-1.519 m 18.642,-8.76 c -2.649,0 -5.172,0.547 -6.364,0.929 -4.727,1.517 -9.187,4.524 -13.303,7.548 -0.106,0.077 -0.169,0.199 -0.17,0.33 -0.002,0.131 0.058,0.255 0.16,0.335 0.899,0.699 5.13,1.831 6.678,1.969 2.87,0.255 5.58,0.497 8.528,-0.706 5.335,-2.178 11.156,-7.411 11.402,-7.632 0.086,-0.078 0.135,-0.187 0.137,-0.303 0.002,-0.116 -0.044,-0.227 -0.127,-0.307 -1.714,-1.655 -4.386,-2.163 -6.941,-2.163" /></g><g
           transform="translate(25.3537,89.0018)"
           id="g88"><path
             id="path90"
             style="fill:#bf9963;fill-opacity:1;fill-rule:nonzero;stroke:none"
             d="m 0,0 c 1.365,-1.143 2.538,-2.569 3.682,-3.958 0.247,-0.301 0.492,-0.598 0.734,-0.887 0.24,-0.286 0.523,-0.642 0.849,-1.048 2.203,-2.762 6.214,-7.789 11.297,-9.667 -0.447,1.317 -1.314,3.866 -1.534,4.479 -0.856,2.395 -1.758,4.117 -2.839,5.419 C 9.105,-1.943 3.23,-0.518 0,0 m 17.228,-16.639 c -0.04,0 -0.08,0.006 -0.119,0.017 -5.707,1.698 -10.124,7.234 -12.497,10.208 -0.32,0.401 -0.599,0.751 -0.836,1.033 v -10e-4 c -0.244,0.292 -0.49,0.591 -0.739,0.893 -1.461,1.776 -2.972,3.612 -4.832,4.767 -0.165,0.103 -0.237,0.306 -0.175,0.491 0.064,0.184 0.246,0.3 0.44,0.279 2.377,-0.253 10.439,-1.447 14.361,-6.177 1.145,-1.379 2.092,-3.182 2.983,-5.671 0.3,-0.839 1.748,-5.106 1.809,-5.287 0.05,-0.148 0.014,-0.311 -0.095,-0.424 -0.08,-0.083 -0.188,-0.128 -0.3,-0.128" /></g><g
           transform="translate(54.5871,83.2312)"
           id="g92"><path
             id="path94"
             style="fill:#bf9963;fill-opacity:1;fill-rule:nonzero;stroke:none"
             d="m 0,0 c -0.126,-1.305 -0.13,-2.593 -0.135,-3.838 -0.006,-1.479 -0.011,-3.009 -0.219,-4.58 -0.09,-0.687 -0.208,-1.397 -0.329,-2.119 -0.492,-2.962 -1,-6.018 0.186,-8.414 1.125,1.749 2.845,4.48 3.151,5.189 0.12,0.28 0.303,0.62 0.514,1.014 1.344,2.509 3.845,7.182 0.645,13.488 C 3.227,1.897 2.337,2.965 1.476,3.998 0.948,4.63 0.435,5.247 0.005,5.865 0.166,3.677 0.164,1.711 0,0 m -0.52,-20.172 v 0 c -0.141,0 -0.273,0.072 -0.35,0.191 -1.773,2.742 -1.168,6.375 -0.636,9.581 0.118,0.712 0.235,1.413 0.325,2.091 0.201,1.518 0.206,2.955 0.211,4.475 0.005,1.264 0.01,2.57 0.139,3.914 0.214,2.224 0.144,4.899 -0.209,7.953 -0.025,0.219 0.125,0.421 0.342,0.459 C -0.48,8.529 -0.271,8.394 -0.22,8.179 0.066,6.993 1.062,5.797 2.117,4.532 3.007,3.463 3.928,2.359 4.558,1.118 7.954,-5.577 5.219,-10.687 3.903,-13.142 3.701,-13.52 3.527,-13.846 3.42,-14.093 c -0.456,-1.055 -3.462,-5.692 -3.59,-5.888 -0.076,-0.119 -0.208,-0.191 -0.35,-0.191" /></g><g
           transform="translate(34.8186,53.698)"
           id="g96"><path
             id="path98"
             style="fill:#bf9963;fill-opacity:1;fill-rule:nonzero;stroke:none"
             d="M 0,0 C 0.812,-0.774 1.583,-1.645 2.274,-2.426 2.55,-2.737 2.809,-3.03 3.047,-3.29 c 1.03,-1.12 1.938,-2.243 2.816,-3.329 1.112,-1.375 2.262,-2.798 3.643,-4.184 3.171,-3.186 8.602,-5.965 12.24,-5.241 l -0.597,0.868 C 17.283,-9.314 15.577,-7.043 11.594,-4.562 8.781,-2.809 5.833,-1.874 2.712,-0.883 1.818,-0.599 0.91,-0.311 0,0 m 20.462,-17.003 c -4.093,0 -8.975,3.026 -11.548,5.611 -1.411,1.417 -2.575,2.857 -3.7,4.248 -0.869,1.076 -1.769,2.188 -2.781,3.29 -0.242,0.263 -0.504,0.56 -0.784,0.875 -1.246,1.409 -2.924,3.306 -4.469,4.041 -0.107,0.044 -0.213,0.09 -0.32,0.136 -0.208,0.09 -0.305,0.329 -0.22,0.539 0.085,0.21 0.323,0.314 0.534,0.234 0.117,-0.044 0.233,-0.094 0.349,-0.149 1.794,-0.752 3.647,-1.34 5.441,-1.909 3.033,-0.963 6.17,-1.959 9.071,-3.766 4.125,-2.571 5.87,-4.889 9.807,-10.857 l 0.929,-1.352 c 0.075,-0.109 0.093,-0.247 0.05,-0.372 -0.042,-0.125 -0.141,-0.222 -0.267,-0.262 -0.66,-0.211 -1.364,-0.307 -2.092,-0.307" /></g><g
           transform="translate(133.2522,-2e-4)"
           id="g100"><path
             id="path102"
             style="fill:#bf9963;fill-opacity:1;fill-rule:nonzero;stroke:none"
             d="M 0,0 C -4.335,0 -8.695,0.309 -13.063,0.93 -32.733,3.728 -51.35,13 -65.48,27.04 c -4.445,4.369 -7.971,10.629 -10.834,16.178 -1.455,2.818 -2.721,5.758 -3.946,8.6 -0.777,1.805 -1.581,3.67 -2.425,5.486 -0.529,1.139 -1.017,2.328 -1.49,3.478 -0.668,1.627 -1.359,3.31 -2.175,4.868 -1.27,2.429 -2.81,5.14 -4.606,6.827 -0.168,0.157 -0.177,0.421 -0.019,0.589 0.159,0.168 0.422,0.176 0.59,0.018 1.887,-1.771 3.473,-4.556 4.775,-7.047 0.834,-1.593 1.532,-3.293 2.208,-4.938 0.468,-1.141 0.953,-2.321 1.474,-3.443 0.849,-1.827 1.656,-3.698 2.435,-5.508 1.219,-2.829 2.479,-5.755 3.921,-8.548 2.833,-5.489 6.316,-11.679 10.678,-15.967 14.006,-13.915 32.455,-23.104 51.949,-25.877 20.17,-2.868 40.227,0.994 58.004,11.171 17.282,9.895 30.609,24.748 38.538,42.952 7.666,17.6 9.653,37.568 5.596,56.228 -0.048,0.225 0.094,0.447 0.32,0.497 0.224,0.048 0.447,-0.095 0.496,-0.32 C 94.103,93.455 92.098,73.304 84.362,55.546 76.36,37.176 62.913,22.188 45.474,12.203 31.383,4.136 15.871,0 0,0" /></g><g
           transform="translate(53.6936,50.8279)"
           id="g104"><path
             id="path106"
             style="fill:#bf9963;fill-opacity:1;fill-rule:nonzero;stroke:none"
             d="m 0,0 c -0.207,0 -0.387,0.154 -0.414,0.365 -0.974,7.737 0.332,12.217 0.389,12.404 0.065,0.22 0.298,0.346 0.518,0.279 C 0.714,12.982 0.84,12.75 0.773,12.529 0.761,12.485 -0.535,8.014 0.414,0.469 0.443,0.241 0.281,0.032 0.053,0.003 0.035,0.001 0.017,0 0,0" /></g><g
           transform="translate(63.7082,32.1185)"
           id="g108"><path
             id="path110"
             style="fill:#bf9963;fill-opacity:1;fill-rule:nonzero;stroke:none"
             d="M 0,0 C -0.123,0 -0.244,0.053 -0.326,0.156 -2.54,2.922 -6.602,4.885 -6.643,4.905 -6.851,5.004 -6.938,5.253 -6.839,5.461 -6.74,5.669 -6.491,5.758 -6.283,5.657 -6.109,5.575 -2.01,3.595 0.325,0.678 0.469,0.498 0.44,0.235 0.26,0.091 0.183,0.03 0.091,0 0,0" /></g><g
           transform="translate(42.3332,72.6238)"
           id="g112"><path
             id="path114"
             style="fill:#bf9963;fill-opacity:1;fill-rule:nonzero;stroke:none"
             d="m 0,0 c -0.109,0 -0.218,0.042 -0.3,0.127 -0.515,0.534 -0.909,1.241 -1.29,1.926 -0.178,0.318 -0.351,0.632 -0.535,0.918 -2.291,3.593 -4.786,6.486 -7.628,8.843 -2.131,1.769 -4.677,3.176 -8.012,4.428 -0.215,0.08 -0.325,0.321 -0.244,0.537 0.081,0.216 0.322,0.325 0.537,0.243 3.425,-1.285 6.047,-2.736 8.252,-4.565 2.909,-2.414 5.46,-5.37 7.799,-9.037 0.192,-0.3 0.374,-0.629 0.56,-0.961 C -0.506,1.821 -0.139,1.162 0.301,0.707 0.46,0.541 0.456,0.277 0.29,0.117 0.209,0.039 0.104,0 0,0" /></g><g
           transform="translate(49.3654,60.761)"
           id="g116"><path
             id="path118"
             style="fill:#bf9963;fill-opacity:1;fill-rule:nonzero;stroke:none"
             d="m 0,0 c -0.162,0 -0.315,0.095 -0.384,0.253 -1.051,2.462 -4.298,4.008 -6.138,4.71 -0.613,0.233 -2.611,0.545 -4.135,0.741 -1.525,0.196 -3.028,0.536 -4.48,0.864 -0.817,0.185 -1.636,0.371 -2.466,0.533 -2.872,0.561 -5.743,1.484 -8.518,2.376 l -0.913,0.293 c -1.113,0.356 -2.287,0.645 -3.322,0.899 -0.109,0.027 -0.246,0.072 -0.397,0.122 -0.233,0.077 -0.78,0.259 -0.929,0.199 -0.211,-0.086 -0.459,0.01 -0.547,0.218 -0.09,0.208 -0.006,0.446 0.199,0.541 0.436,0.2 1.022,0.005 1.539,-0.166 0.128,-0.042 0.242,-0.081 0.333,-0.103 1.049,-0.258 2.237,-0.55 3.378,-0.915 l 0.914,-0.294 c 2.753,-0.884 5.599,-1.799 8.424,-2.352 0.837,-0.163 1.664,-0.35 2.489,-0.537 1.434,-0.324 2.917,-0.66 4.401,-0.851 C -9.753,6.429 -7.08,6.069 -6.226,5.743 -4.261,4.993 -0.789,3.326 0.384,0.581 0.475,0.369 0.376,0.124 0.164,0.034 0.11,0.011 0.055,0 0,0" /></g><g
           transform="translate(53.9475,63.4319)"
           id="g120"><path
             id="path122"
             style="fill:#bf9963;fill-opacity:1;fill-rule:nonzero;stroke:none"
             d="m 0,0 c -0.025,0 -0.05,0.002 -0.075,0.007 -0.222,0.041 -0.372,0.245 -0.337,0.469 0.014,0.085 0.064,0.249 0.236,0.806 0.686,2.217 2.773,8.963 2.679,12.965 -0.107,4.49 -2.517,11.985 -2.752,12.472 -0.121,0.196 -0.055,0.444 0.142,0.564 0.197,0.121 0.459,0.05 0.58,-0.146 C 0.675,26.807 3.224,19.043 3.337,14.266 3.435,10.128 1.317,3.284 0.621,1.035 0.504,0.656 0.427,0.411 0.411,0.335 0.368,0.14 0.193,0 0,0" /></g><g
           transform="translate(56.8439,36.9539)"
           id="g124"><path
             id="path126"
             style="fill:#bf9963;fill-opacity:1;fill-rule:nonzero;stroke:none"
             d="m 0,0 c -0.116,0 -0.231,0.048 -0.313,0.142 -0.217,0.221 -2.736,2.111 -4.958,3.778 -2.048,1.536 -4.166,3.124 -5.519,4.174 -1.586,1.232 -5.946,4.28 -9.131,6.505 -2.134,1.492 -3.257,2.278 -3.446,2.435 -0.177,0.147 -0.201,0.41 -0.055,0.587 0.148,0.177 0.41,0.202 0.588,0.055 0.171,-0.142 1.663,-1.185 3.392,-2.393 3.191,-2.231 7.561,-5.285 9.164,-6.529 C -8.931,7.708 -6.815,6.122 -4.771,4.587 -1.307,1.989 0.124,0.909 0.313,0.692 0.466,0.519 0.448,0.255 0.275,0.104 0.195,0.034 0.098,0 0,0" /></g><g
           transform="translate(44.7482,107.9788)"
           id="g128"><path
             id="path130"
             style="fill:#bf9963;fill-opacity:1;fill-rule:nonzero;stroke:none"
             d="m 0,0 c -0.73,-1.438 -0.828,-3.684 -0.28,-6.492 0.111,-0.572 0.22,-1.214 0.26,-1.87 0.888,0.588 1.882,0.993 2.851,1.387 0.614,0.25 1.25,0.509 1.835,0.808 0.316,0.161 0.671,0.326 1.044,0.499 1.318,0.613 2.812,1.308 3.552,2.284 l 0.336,0.352 c 0.016,0.018 0.035,0.034 0.054,0.049 1.562,1.14 2.536,2.151 3.065,3.18 0.245,0.44 0.441,0.883 0.633,1.311 0.291,0.655 0.591,1.332 1.047,1.977 0.334,0.442 0.671,0.864 1.005,1.281 0.564,0.705 1.096,1.371 1.559,2.056 0.467,0.642 0.761,1.357 0.882,2.137 0.031,0.194 0.049,0.39 0.061,0.587 0.023,0.214 0.033,0.412 0.035,0.613 0.004,0.394 -0.029,0.811 -0.096,1.237 -0.067,0.414 -0.167,0.847 -0.3,1.286 -0.113,0.441 -0.254,0.876 -0.421,1.31 -0.309,0.806 -0.74,1.66 -1.283,2.538 l -0.336,0.557 c -0.439,0.724 -0.852,1.408 -1.23,2.121 -0.259,0.492 -0.475,0.946 -0.658,1.387 -0.003,0.006 -0.005,0.012 -0.007,0.019 -0.252,-0.694 -0.616,-1.373 -1.105,-2.071 L 12.309,18.275 C 11.654,17.37 10.979,16.433 10.433,15.388 10.283,15.098 10.14,14.796 10.001,14.49 9.905,14.266 9.817,14.029 9.729,13.791 L 9.496,13.161 C 9.303,12.636 9.107,12.106 8.896,11.581 8.803,11.363 8.718,11.152 8.633,10.942 8.455,10.503 8.271,10.049 8.048,9.608 7.696,8.9 7.306,8.279 6.856,7.712 6.12,6.755 5.234,5.782 3.988,4.563 3.445,4.039 2.946,3.535 2.46,3.022 1.855,2.392 1.402,1.898 0.989,1.419 0.567,0.926 0.233,0.448 0,0 m -0.429,-9.606 c -0.062,0 -0.126,0.014 -0.184,0.043 -0.15,0.073 -0.241,0.229 -0.233,0.395 0.043,0.85 -0.104,1.749 -0.254,2.517 -0.583,2.993 -0.46,5.425 0.357,7.031 0.001,0.001 0.001,0.002 0.002,0.004 0.266,0.512 0.626,1.029 1.098,1.579 0.424,0.492 0.886,0.995 1.499,1.636 0.493,0.519 1,1.031 1.55,1.563 1.216,1.188 2.077,2.133 2.793,3.064 0.416,0.525 0.777,1.098 1.103,1.756 0.209,0.413 0.378,0.831 0.556,1.273 0.087,0.215 0.175,0.431 0.267,0.646 0.205,0.51 0.397,1.031 0.588,1.549 l 0.234,0.632 c 0.093,0.251 0.186,0.5 0.29,0.744 0.149,0.327 0.297,0.641 0.454,0.946 0.576,1.102 1.27,2.062 1.942,2.992 l 0.189,0.263 c 0.766,1.091 1.177,2.083 1.331,3.212 0.028,0.199 0.194,0.351 0.395,0.36 0.206,0.013 0.381,-0.127 0.426,-0.324 0.108,-0.474 0.244,-0.922 0.417,-1.371 0.168,-0.407 0.372,-0.837 0.621,-1.306 0.366,-0.691 0.773,-1.366 1.205,-2.079 l 0.334,-0.555 c 0.568,-0.918 1.023,-1.819 1.349,-2.672 0.179,-0.464 0.329,-0.931 0.447,-1.386 0.138,-0.457 0.248,-0.927 0.32,-1.379 0.075,-0.472 0.111,-0.935 0.106,-1.377 C 18.771,9.923 18.759,9.698 18.735,9.476 18.723,9.27 18.702,9.048 18.667,8.83 18.525,7.918 18.182,7.081 17.645,6.343 17.171,5.642 16.604,4.932 16.054,4.245 15.725,3.833 15.393,3.417 15.07,2.992 14.67,2.426 14.399,1.815 14.111,1.169 13.913,0.724 13.709,0.263 13.452,-0.197 12.872,-1.327 11.828,-2.424 10.174,-3.636 L 9.896,-3.925 C 9.063,-5.03 7.468,-5.771 6.062,-6.425 5.699,-6.593 5.354,-6.754 5.045,-6.911 4.429,-7.226 3.776,-7.491 3.146,-7.748 1.928,-8.244 0.778,-8.712 -0.158,-9.507 -0.235,-9.572 -0.332,-9.606 -0.429,-9.606" /></g><g
           transform="translate(50.2131,87.4808)"
           id="g132"><path
             id="path134"
             style="fill:#bf9963;fill-opacity:1;fill-rule:nonzero;stroke:none"
             d="m 0,0 c -1.526,-1.509 -4.985,-4.966 -4.804,-9.154 0.142,-3.247 0.989,-5.212 1.349,-5.913 2.289,1.01 3.635,3.983 3.791,6.514 C 0.437,-6.926 0.31,-5.258 0.187,-3.645 0.097,-2.451 0.004,-1.226 0,0 m -3.64,-16.005 c -0.136,0 -0.268,0.067 -0.347,0.187 -0.06,0.089 -1.46,2.246 -1.65,6.628 -0.2,4.595 3.508,8.259 5.091,9.824 0.267,0.263 0.568,0.562 0.622,0.65 0.099,0.164 0.3,0.244 0.482,0.189 C 0.74,1.417 0.865,1.25 0.856,1.06 0.783,-0.478 0.903,-2.055 1.02,-3.582 c 0.124,-1.641 0.252,-3.339 0.149,-5.022 -0.176,-2.834 -1.712,-6.351 -4.672,-7.378 -0.045,-0.016 -0.091,-0.023 -0.137,-0.023" /></g><g
           transform="translate(47.2727,65.4266)"
           id="g136"><path
             id="path138"
             style="fill:#bf9963;fill-opacity:1;fill-rule:nonzero;stroke:none"
             d="m 0,0 c -0.149,0 -0.294,0.081 -0.369,0.222 -1.644,3.108 -0.77,6.229 -0.732,6.36 0.065,0.221 0.296,0.35 0.517,0.285 C -0.363,6.803 -0.235,6.572 -0.299,6.351 -0.307,6.322 -1.113,3.414 0.368,0.612 0.477,0.408 0.398,0.156 0.194,0.048 0.133,0.015 0.065,0 0,0" /></g><g
           transform="translate(46.6691,71.7557)"
           id="g140"><path
             id="path142"
             style="fill:#bf9963;fill-opacity:1;fill-rule:nonzero;stroke:none"
             d="m 0,0 c -0.06,0 -0.119,0.013 -0.177,0.04 -0.209,0.098 -0.298,0.347 -0.2,0.555 0.075,0.16 0.115,0.401 0.118,0.713 0.009,0.917 0.044,2.117 0.238,3.274 0.034,0.193 0.062,0.386 0.091,0.579 0.07,0.467 0.142,0.95 0.267,1.427 0.089,0.339 0.187,0.675 0.287,1.011 0.126,0.425 0.252,0.852 0.355,1.284 0.35,1.468 0.858,3.076 1.597,5.061 0.13,0.35 0.221,0.719 0.317,1.11 0.121,0.492 0.246,1.002 0.46,1.485 0.093,0.211 0.34,0.306 0.55,0.213 0.211,-0.093 0.306,-0.34 0.213,-0.551 C 3.932,15.786 3.82,15.333 3.703,14.855 3.605,14.458 3.505,14.048 3.358,13.652 2.631,11.701 2.133,10.124 1.791,8.689 1.684,8.243 1.554,7.802 1.424,7.362 1.327,7.035 1.23,6.707 1.145,6.377 1.03,5.943 0.965,5.503 0.896,5.037 0.865,4.839 0.836,4.641 0.803,4.443 0.617,3.344 0.584,2.187 0.575,1.3 0.571,0.861 0.507,0.514 0.378,0.24 0.307,0.089 0.157,0 0,0" /></g><g
           transform="translate(32.5461,103.2625)"
           id="g144"><path
             id="path146"
             style="fill:#bf9963;fill-opacity:1;fill-rule:nonzero;stroke:none"
             d="M 0,0 C 0.107,-2.478 0.732,-4.014 1.033,-4.62 2.982,-3.713 3.84,-1.121 3.939,0.482 4.019,1.776 3.918,3.105 3.82,4.392 3.753,5.283 3.684,6.196 3.672,7.111 2.401,5.849 -0.139,3.187 0,0 m 0.846,-5.562 c -0.137,0 -0.269,0.067 -0.348,0.187 -0.048,0.072 -1.179,1.815 -1.332,5.338 -0.161,3.71 2.82,6.656 4.093,7.913 C 3.465,8.08 3.699,8.312 3.744,8.381 3.847,8.54 4.047,8.618 4.228,8.562 4.407,8.503 4.531,8.342 4.522,8.154 4.464,6.93 4.56,5.672 4.652,4.455 4.752,3.141 4.855,1.781 4.771,0.431 4.63,-1.86 3.384,-4.706 0.982,-5.539 0.937,-5.555 0.892,-5.562 0.846,-5.562" /></g><g
           transform="translate(33.4689,97.9241)"
           id="g148"><path
             id="path150"
             style="fill:#bf9963;fill-opacity:1;fill-rule:nonzero;stroke:none"
             d="m 0,0 c -0.06,0 -0.12,0.013 -0.178,0.041 -0.208,0.097 -0.298,0.346 -0.199,0.554 0.055,0.117 0.084,0.298 0.086,0.535 0.007,0.735 0.035,1.698 0.192,2.629 0.026,0.154 0.049,0.307 0.072,0.461 0.055,0.375 0.114,0.764 0.214,1.15 0.072,0.271 0.151,0.54 0.231,0.809 0.1,0.339 0.2,0.678 0.282,1.022 0.281,1.176 0.688,2.465 1.279,4.054 0.103,0.275 0.175,0.568 0.25,0.878 0.098,0.397 0.199,0.808 0.373,1.201 0.093,0.21 0.34,0.306 0.55,0.212 0.211,-0.093 0.306,-0.339 0.213,-0.55 C 3.221,12.67 3.133,12.313 3.04,11.934 2.962,11.615 2.881,11.285 2.762,10.964 2.182,9.407 1.785,8.149 1.512,7.007 1.427,6.649 1.322,6.296 1.218,5.942 1.141,5.682 1.063,5.421 0.995,5.158 0.905,4.816 0.854,4.466 0.798,4.097 0.774,3.938 0.751,3.779 0.724,3.621 0.576,2.747 0.55,1.827 0.544,1.123 0.54,0.758 0.486,0.47 0.378,0.24 0.307,0.089 0.156,0 0,0" /></g><g
           transform="translate(30.0119,61.5877)"
           id="g152"><path
             id="path154"
             style="fill:#bf9963;fill-opacity:1;fill-rule:nonzero;stroke:none"
             d="m 0,0 c 0.178,-0.202 0.352,-0.405 0.523,-0.605 0.598,-0.698 1.217,-1.419 1.906,-2.013 1.675,-1.445 3.665,-2.507 5.914,-3.154 0.291,-0.083 0.583,-0.172 0.874,-0.261 0.992,-0.302 2.018,-0.615 3.043,-0.718 0.484,-0.049 0.969,-0.089 1.453,-0.129 0.905,-0.075 1.842,-0.152 2.767,-0.288 0.285,-0.041 2.032,-0.274 2.974,-0.4 -0.831,2.919 -3.43,4.536 -5.364,5.514 -0.802,0.406 -1.626,0.628 -2.5,0.863 -0.403,0.109 -0.809,0.218 -1.215,0.347 C 9.322,-0.511 8.277,-0.307 7.181,-0.219 6.138,-0.136 5.057,-0.143 4.012,-0.15 2.693,-0.158 1.342,-0.167 0,0 m 20,-8.478 c -0.019,0 -0.037,10e-4 -0.055,0.003 0,0 -3.192,0.424 -3.585,0.481 -0.9,0.132 -1.824,0.209 -2.716,0.283 -0.489,0.04 -0.978,0.08 -1.468,0.13 -1.106,0.111 -2.171,0.436 -3.202,0.749 -0.287,0.088 -0.575,0.176 -0.862,0.258 -2.365,0.681 -4.461,1.799 -6.228,3.324 -0.737,0.635 -1.376,1.381 -1.994,2.102 -0.427,0.498 -0.869,1.012 -1.327,1.47 -0.13,0.131 -0.159,0.333 -0.07,0.495 0.089,0.163 0.276,0.247 0.455,0.207 1.648,-0.362 3.382,-0.351 5.059,-0.339 1.062,0.006 2.161,0.014 3.24,-0.072 1.16,-0.093 2.266,-0.309 3.38,-0.662 0.394,-0.124 0.789,-0.23 1.181,-0.336 0.875,-0.236 1.78,-0.48 2.658,-0.924 2.215,-1.12 5.24,-3.029 5.943,-6.673 0.026,-0.132 -0.013,-0.268 -0.105,-0.365 -0.08,-0.085 -0.19,-0.131 -0.304,-0.131" /></g><g
           transform="translate(55.8166,46.0472)"
           id="g156"><path
             id="path158"
             style="fill:#bf9963;fill-opacity:1;fill-rule:nonzero;stroke:none"
             d="m 0,0 c -0.135,0 -0.268,0.065 -0.348,0.187 -3.043,4.587 -5.706,6.956 -5.732,6.98 -0.173,0.152 -0.191,0.415 -0.038,0.588 0.152,0.173 0.416,0.189 0.589,0.038 C -5.418,7.695 -2.762,5.336 0.348,0.647 0.475,0.456 0.422,0.197 0.23,0.069 0.159,0.022 0.079,0 0,0" /></g><g
           transform="translate(49.8791,53.4529)"
           id="g160"><path
             id="path162"
             style="fill:#bf9963;fill-opacity:1;fill-rule:nonzero;stroke:none"
             d="m 0,0 c -0.09,0 -0.181,0.029 -0.258,0.089 -0.139,0.11 -0.301,0.252 -0.471,0.403 -0.25,0.219 -0.531,0.468 -0.779,0.639 -0.58,0.403 -1.19,0.723 -1.711,0.983 -0.999,0.499 -1.9,0.933 -2.814,1.185 -0.653,0.18 -1.298,0.398 -1.922,0.609 -0.537,0.182 -1.075,0.364 -1.622,0.524 -0.859,0.25 -1.745,0.473 -2.602,0.688 -1.005,0.253 -2.043,0.514 -3.056,0.823 -1.873,0.573 -3.762,1.33 -5.319,2.134 -0.205,0.105 -0.285,0.357 -0.179,0.561 0.105,0.205 0.357,0.285 0.561,0.18 1.514,-0.781 3.354,-1.518 5.181,-2.077 0.993,-0.303 2.021,-0.562 3.015,-0.811 0.865,-0.218 1.758,-0.443 2.633,-0.697 C -8.785,5.07 -8.236,4.884 -7.687,4.699 -7.074,4.491 -6.44,4.276 -5.812,4.103 -4.825,3.832 -3.885,3.38 -2.846,2.861 -2.298,2.587 -1.655,2.25 -1.032,1.817 -0.745,1.618 -0.443,1.353 -0.178,1.118 -0.02,0.978 0.13,0.847 0.259,0.745 0.439,0.603 0.471,0.34 0.328,0.159 0.246,0.055 0.124,0 0,0" /></g><g
           transform="translate(37.9973,157.6971)"
           id="g164"><path
             id="path166"
             style="fill:#bf9963;fill-opacity:1;fill-rule:nonzero;stroke:none"
             d="M 0,0 C 1.104,2.667 2.345,4.526 3.794,5.684 4.186,5.995 4.587,6.23 4.986,6.381 l 0.028,0.01 0.007,-0.028 c 0.858,-3.675 4.73,-6.555 6.356,-7.621 3.363,-2.21 6.919,-3.937 10.281,-4.999 l 0.18,-0.056 -0.189,0.006 c -0.537,0.021 -1.062,0.04 -1.595,0.051 -4.772,0.099 -10.803,-1.236 -13.417,-5.283 -0.48,-0.741 -0.584,-1.399 -0.314,-1.955 0.304,-0.625 1.079,-1.026 2.183,-1.128 0.119,-0.011 0.238,-0.02 0.356,-0.027 1.122,-0.071 2.246,-0.005 3.336,0.06 1.073,0.062 2.181,0.127 3.255,0.059 0.08,-0.005 0.16,-0.011 0.24,-0.018 1.088,-0.09 2.222,-0.36 3.468,-0.827 l 0.031,-0.011 -0.019,-0.027 c -1.349,-1.922 -3.848,-4.289 -6.448,-4.637 -0.33,-0.044 -0.658,-0.054 -0.98,-0.034 -1.269,0.08 -2.487,0.649 -3.633,1.7 -0.815,0.747 -1.235,1.995 -1.642,3.207 -0.408,1.211 -0.83,2.465 -1.659,3.342 -0.47,0.496 -0.971,0.986 -1.415,1.419 -1.319,1.29 -2.682,2.624 -3.528,4.228 C -1.048,-4.452 -1.005,-2.428 0,0 m 17.829,-14.146 c -0.698,0.182 -1.396,0.302 -2.074,0.358 -0.091,0.008 -0.182,0.015 -0.271,0.02 -1.122,0.071 -2.243,0.005 -3.332,-0.058 -1.061,-0.064 -2.155,-0.128 -3.232,-0.06 -0.116,0.007 -0.231,0.015 -0.345,0.026 -0.803,0.07 -1.388,0.332 -1.565,0.7 -0.146,0.298 -0.055,0.704 0.269,1.207 2.444,3.781 8.193,5.027 12.759,4.933 0.608,-0.012 1.202,-0.036 1.704,-0.056 l 0.075,-0.003 -0.062,-0.043 c -0.443,-0.309 -0.743,-0.641 -0.916,-1.015 -0.191,-0.406 -0.136,-1.102 0.247,-1.489 0.149,-0.151 0.571,-0.467 1.28,-0.147 0.692,0.315 1.319,1.031 1.722,1.578 0.16,0.215 0.27,0.424 0.337,0.641 l 0.038,0.123 0.011,-0.128 c 0.158,-1.774 0.792,-2.769 1.938,-3.041 0.181,-0.044 0.344,-0.054 0.488,-0.027 0.076,0.014 0.147,0.038 0.212,0.072 l 0.021,0.011 0.013,-0.02 c 1.106,-1.71 2.106,-3.635 2.971,-5.719 l 0.008,-0.02 -0.019,-0.012 c -0.482,-0.315 -1.014,-0.562 -1.536,-0.717 -0.697,-0.206 -1.386,-0.265 -2.062,-0.223 -1.439,0.09 -2.809,0.646 -4.026,1.235 l -0.081,-0.167 H 22.4 l -0.046,0.021 0.079,0.17 c -1.365,0.662 -2.909,1.411 -4.604,1.85 m 2.196,-2.24 -0.183,0.027 0.005,0.051 0.189,-0.015 c 0.01,0.064 0.019,0.128 0.027,0.191 0.017,0.117 0.034,0.23 0.047,0.34 l 0.004,0.033 0.032,-0.013 c 0.667,-0.288 1.305,-0.598 1.93,-0.901 l 0.051,-0.024 c 1.924,-0.934 4.224,-1.792 6.659,-1.068 0.545,0.161 1.099,0.41 1.606,0.719 l 0.025,0.016 0.012,-0.028 c 0.266,-0.684 0.513,-1.364 0.734,-2.025 l 0.009,-0.023 -0.752,-0.267 c -1.564,-0.558 -3.181,-1.134 -4.785,-1.653 l -0.371,-0.122 c -0.993,-0.33 -2.327,-0.771 -3.426,-0.702 -0.124,0.008 -0.232,0.049 -0.35,0.071 -0.021,0.004 -0.042,0.008 -0.063,0.012 -0.176,0.038 -0.343,0.089 -0.497,0.164 -0.026,0.012 -0.046,0.032 -0.072,0.045 -0.144,0.079 -0.295,0.145 -0.415,0.265 -0.982,0.98 -0.657,3.245 -0.416,4.907 m 7.17,7.846 c 0.219,-0.113 0.418,-0.214 0.611,-0.31 0.338,-0.17 0.656,-0.33 0.959,-0.492 1.796,-0.958 3.449,-2.091 3.385,-3.875 -0.032,-0.904 -0.509,-1.814 -1.345,-2.564 l -0.027,-0.023 -0.013,0.032 c -0.946,2.234 -2.044,4.281 -3.266,6.084 l -0.004,0.013 c -0.025,0.315 -0.143,0.706 -0.334,1.102 l -0.033,0.068 z m 4.723,-10.275 c -0.26,0.771 -0.536,1.525 -0.823,2.244 l -0.007,0.017 0.015,0.012 c 1.125,0.911 1.767,2.082 1.811,3.296 0.091,2.508 -2.529,3.906 -3.79,4.579 -0.303,0.162 -0.623,0.323 -0.934,0.479 l -0.012,0.007 c -0.491,0.245 -0.996,0.499 -1.492,0.783 l -0.109,0.063 0.124,-0.015 c 1.555,-0.192 3.112,-0.281 4.493,-0.359 l 1.013,-0.059 c 2.055,-0.121 4.179,-0.247 6.258,-0.052 1.162,0.108 2.245,0.399 3.221,0.866 l 0.01,0.005 0.011,-0.004 c 0.528,-0.233 0.955,-0.523 1.27,-0.861 0.578,-0.625 0.78,-1.457 0.6,-2.473 -0.846,-4.773 -7.415,-7.072 -10.596,-8.18 l 0.055,-0.179 -0.048,-0.015 -0.06,0.176 c -0.209,-0.073 -0.418,-0.147 -0.626,-0.221 l -0.267,-0.094 -0.109,-0.04 z m -1.304,12.122 0.178,0.022 c 0.855,0.109 1.825,0.231 2.766,0.323 2.916,0.284 5.257,0.214 6.961,-0.208 l 0.083,-0.02 -0.081,-0.028 c -0.663,-0.232 -1.378,-0.385 -2.127,-0.455 -2.034,-0.19 -4.132,-0.065 -6.161,0.056 l -0.928,0.054 c -0.451,0.025 -0.932,0.052 -1.423,0.083 l -0.167,0.01 -0.002,0.051 c 0.304,0.037 0.603,0.075 0.901,0.112 m 11.045,0.588 -0.011,-0.005 -0.009,0.004 c -0.262,0.096 -0.541,0.184 -0.83,0.259 -1.815,0.469 -4.278,0.556 -7.326,0.26 -0.912,-0.089 -1.834,-0.206 -2.726,-0.318 l -0.011,-10e-4 c -0.9,-0.115 -1.78,-0.224 -2.643,-0.311 l -0.169,-0.018 0.156,0.067 c 3.966,1.659 6.157,6.311 6.915,8.233 1.83,4.653 1.492,11.351 -2.738,14.6 l -0.131,0.099 0.038,0.018 c 0.367,0.181 0.739,0.307 1.106,0.374 l 0.062,0.011 c 0.266,0.043 0.529,0.055 0.786,0.039 1.685,-0.106 3.155,-1.411 4.285,-2.595 2.564,-2.691 6.894,-8.028 7.091,-13.565 0.11,-3.171 -1.291,-5.777 -3.845,-7.151 m -16.3,-1.992 c 0.438,-0.542 0.872,-1.123 1.291,-1.727 l 0.036,-0.051 -0.062,0.012 c -0.007,10e-4 -0.016,0.003 -0.022,0.005 l -0.017,0.004 c -0.666,0.173 -1.082,0.742 -1.271,1.736 l -0.018,0.099 z m 0.054,2.486 0.17,0.216 c 0.554,0.709 0.991,1.269 1.681,1.957 0.165,0.166 0.374,0.278 0.589,0.319 0.104,0.018 0.208,0.017 0.287,-10e-4 0.124,-0.019 0.15,-0.07 0.16,-0.119 0.013,-0.059 0.046,-0.381 -0.605,-1.024 -0.922,-0.913 -1.299,-1.104 -2.211,-1.331 z m -0.621,4.107 c 10e-4,-0.004 0.005,-0.015 0.01,-0.026 0.023,-0.061 0.078,-0.205 0.098,-0.508 0.009,-0.178 -0.062,-0.67 -0.138,-1.191 -0.089,-0.61 -0.211,-1.448 -0.278,-2.303 l -0.005,-0.068 -0.04,0.054 c -0.093,0.125 -0.174,0.247 -0.251,0.374 -0.076,0.127 -0.149,0.271 -0.224,0.44 l -0.003,0.009 c -0.041,0.579 0.006,1.349 0.123,1.963 0.159,0.832 0.544,1.248 0.678,1.281 l 0.045,0.019 z m 7.009,17.563 C 35.737,13.036 36.023,6.737 34.294,2.345 33.709,0.861 31.489,-4.099 27.44,-5.585 l -0.151,-0.056 0.128,0.1 c 0.234,0.183 0.494,0.416 0.815,0.734 0.834,0.826 0.899,1.414 0.806,1.762 -0.084,0.323 -0.335,0.564 -0.689,0.661 l -0.009,0.003 c -0.519,0.135 -1.172,-0.072 -1.616,-0.516 -0.57,-0.568 -0.962,-1.04 -1.301,-1.465 l -0.057,-0.071 0.012,0.091 c 0.037,0.284 0.076,0.558 0.111,0.8 l 0.025,0.172 c 0.095,0.651 0.164,1.121 0.147,1.379 -0.066,1.068 -0.553,1.259 -0.838,1.276 -0.002,0.001 -0.003,0.001 -0.004,0.001 -0.47,0.029 -0.951,-0.402 -1.256,-1.124 l -0.056,-0.134 0.007,0.145 c 0.048,0.902 0.214,1.789 0.336,2.377 1.063,5.206 2.711,9.51 4.897,12.79 0.582,0.877 1.492,2.139 2.662,2.979 l 0.014,0.01 0.014,-0.01 c 0.121,-0.081 0.243,-0.168 0.364,-0.26 m -11.219,-21.148 -0.15,0.056 c -2.84,1.041 -5.828,2.568 -8.636,4.412 C 10.244,0.4 6.549,3.142 5.764,6.545 L 5.758,6.573 5.786,6.576 C 5.97,6.597 6.152,6.6 6.334,6.589 c 2.151,-0.136 4.155,-2.374 5.79,-4.2 l 0.062,-0.067 c 0.281,-0.315 0.513,-0.574 0.741,-0.817 1.236,-1.325 2.805,-1.89 4.469,-2.489 l 0.008,-0.004 c 1.305,-0.47 2.655,-0.957 3.811,-1.867 l 0.116,-0.09 -0.14,0.046 c -0.032,0.011 -0.065,0.021 -0.098,0.029 -0.322,0.083 -0.645,0.062 -0.964,-0.062 -0.61,-0.242 -0.616,-0.691 -0.59,-0.873 0.051,-0.348 0.358,-0.747 0.917,-1.185 z m 2.525,-2.135 0.169,0.089 0.013,0.003 c 0.14,-0.005 0.278,-0.008 0.417,-0.01 l 0.028,-10e-4 -0.004,-0.028 c -0.03,-0.175 -0.084,-0.338 -0.256,-0.57 -0.349,-0.473 -0.879,-1.089 -1.424,-1.336 -0.113,-0.051 -0.208,-0.075 -0.284,-0.07 -0.057,0.003 -0.103,0.023 -0.137,0.059 -0.134,0.136 -0.169,0.474 -0.098,0.627 0.26,0.558 0.96,0.919 1.576,1.237 m -2.809,3.511 -0.003,0.025 0.024,0.005 c 0.004,10e-4 0.014,0.006 0.024,0.011 0.015,0.007 0.038,0.018 0.066,0.029 0.048,0.019 0.097,0.034 0.152,0.044 0.116,0.02 0.232,0.016 0.352,-0.016 0.515,-0.133 1.027,-0.72 1.483,-1.241 0.209,-0.242 0.415,-0.474 0.613,-0.66 l 0.117,-0.104 -0.12,0.042 c -0.777,0.274 -2.594,1.354 -2.708,1.865 M 30.703,16.744 30.672,16.719 C 29.541,15.82 28.669,14.602 28.111,13.765 25.87,10.401 24.185,6.007 23.1,0.705 22.858,-0.475 22.632,-1.864 22.784,-3.226 l 0.009,-0.08 -0.053,0.061 c -1.444,1.667 -3.293,2.332 -5.08,2.977 C 16.084,0.3 14.596,0.838 13.485,2.027 13.23,2.3 12.966,2.595 12.691,2.903 10.89,4.914 8.423,7.671 5.665,7.334 L 5.638,7.331 5.637,7.357 c -0.075,0.897 0.078,1.777 0.451,2.616 1.444,3.244 6.334,4.152 10.262,4.883 0.958,0.178 1.689,0.316 2.37,0.47 0.999,0.228 2.021,0.536 3.011,0.833 l 0.072,0.023 c 3.189,0.96 6.203,1.867 8.864,0.579 z M -0.809,-6.544 c 0.902,-1.708 2.307,-3.083 3.665,-4.412 l 0.155,-0.152 c 0.417,-0.41 0.847,-0.833 1.245,-1.253 0.716,-0.758 1.105,-1.922 1.485,-3.052 0.441,-1.305 0.896,-2.655 1.854,-3.534 1.613,-1.48 3.374,-2.109 5.228,-1.86 0.101,0.012 0.198,0.029 0.299,0.046 2.856,0.526 5.175,3.025 6.04,4.075 l 0.058,0.069 -0.012,-0.088 c -0.285,-2.022 -0.398,-4.042 0.692,-5.129 0.731,-0.732 1.822,-0.952 3.339,-0.672 0.812,0.151 1.611,0.416 2.253,0.629 l 0.379,0.125 c 1.103,0.356 2.205,0.74 3.298,1.126 l 7.431,2.718 v -0.002 c 3.291,1.42 7.061,3.718 7.729,7.49 0.225,1.264 -0.042,2.314 -0.791,3.124 -0.266,0.289 -0.6,0.548 -0.995,0.772 l -0.036,0.021 0.035,0.023 c 2.482,1.572 3.84,4.326 3.723,7.554 -0.204,5.791 -4.661,11.297 -7.298,14.064 -1.321,1.386 -3.358,3.182 -5.75,2.782 -0.612,-0.104 -1.216,-0.332 -1.796,-0.678 l -0.012,-0.008 -0.013,0.007 c -3.042,1.711 -6.48,0.676 -9.805,-0.325 L 21.546,16.902 C 20.56,16.604 19.54,16.298 18.55,16.072 17.832,15.909 17.01,15.756 16.209,15.607 12.104,14.845 6.997,13.895 5.391,10.284 4.945,9.284 4.775,8.239 4.883,7.179 L 4.886,7.159 4.866,7.153 C 4.34,6.975 3.818,6.68 3.316,6.28 1.764,5.042 0.448,3.083 -0.707,0.292 -1.804,-2.359 -1.837,-4.595 -0.809,-6.544" /></g><g
           transform="translate(1.0031,100.3274)"
           id="g168"><path
             id="path170"
             style="fill:#bf9963;fill-opacity:1;fill-rule:nonzero;stroke:none"
             d="M 0,0 C 0.002,0.116 0.02,0.238 0.052,0.365 0.556,0.341 1.186,0.603 1.975,1.172 3.074,1.966 4.088,3.22 4.836,4.708 5.033,4.792 5.229,4.868 5.42,4.931 8.228,3.134 12.959,3.099 16.766,3.071 17.792,3.063 18.846,3.055 19.696,3.006 19.787,3 19.893,2.991 20.009,2.981 L 20.11,2.972 C 20.699,2.92 21.46,2.855 22.133,2.939 21.676,2.222 21.558,1.753 21.761,1.476 c 0.078,-0.108 0.263,-0.274 0.644,-0.157 0.649,0.197 1.204,0.462 1.651,0.675 0.483,0.228 0.88,0.415 1.249,0.485 -1.484,-2.342 -5.901,-4.806 -9.552,-5.275 -4.53,-0.588 -10.28,0.323 -14.16,1.363 v 0.001 C 0.527,-1.147 -0.008,-0.665 0,0 M 25.536,3.199 C 24.949,3.182 24.393,2.918 23.762,2.619 23.365,2.43 22.923,2.219 22.411,2.047 c 0.132,0.266 0.423,0.755 0.899,1.336 0.075,0.055 0.163,0.148 0.234,0.251 0.018,0.025 0.035,0.053 0.049,0.079 0.11,0.122 0.226,0.245 0.346,0.366 0.388,0.382 0.754,0.665 1.059,0.817 0.226,0.115 0.413,0.154 0.524,0.109 0.164,-0.062 0.279,-0.376 0.306,-0.838 0.019,-0.305 -0.035,-0.63 -0.16,-0.968 -0.044,0.001 -0.088,0.001 -0.132,0 m -0.33,2.495 0.103,1.027 c 0.553,5.466 1.313,12.952 -0.993,16.356 -0.373,0.551 -0.842,0.984 -1.399,1.289 0.062,0.036 0.126,0.071 0.196,0.105 0.303,0.152 0.658,0.287 1.084,0.415 0.583,0.173 1.197,0.416 1.79,0.651 1.145,0.455 2.311,0.918 3.358,0.949 0.035,10e-4 0.07,0.002 0.105,10e-4 0.161,0 0.318,-0.078 0.476,-0.238 1.573,-1.591 1.984,-9.498 1.96,-11.593 C 31.833,10.019 29.646,6.31 26.301,5.15 26.165,5.415 25.972,5.588 25.72,5.668 L 25.879,5.753 25.608,5.695 C 25.482,5.719 25.349,5.717 25.206,5.694 M 23.744,22.69 c 2.164,-3.197 1.42,-10.54 0.877,-15.9 L 24.556,6.139 c -0.121,0.829 -0.008,2.91 0.05,4.009 l 0.005,0.08 c 0.067,1.251 0.136,2.547 0.082,3.439 -0.107,1.802 -0.823,3.325 -1.516,4.798 -0.415,0.88 -0.841,1.787 -1.134,2.743 -0.142,0.462 -0.22,0.858 -0.238,1.208 0.284,0.245 0.419,0.465 0.41,0.672 -0.004,0.099 -0.04,0.263 -0.213,0.397 0.003,0.006 0.007,0.014 0.011,0.02 0.077,0.142 0.171,0.271 0.287,0.392 0.588,-0.252 1.073,-0.659 1.444,-1.207 m -2.157,1.431 c -0.069,-0.093 -0.13,-0.189 -0.183,-0.289 -0.02,-0.039 -0.04,-0.077 -0.058,-0.116 -0.302,0.057 -0.619,0.077 -0.946,0.068 -2.265,-0.066 -4.976,-1.572 -6.156,-2.297 l -0.827,-0.504 c -0.993,-0.604 -2.082,-1.265 -3.131,-1.997 0.296,0.265 0.605,0.538 0.926,0.82 2.72,2.379 7.01,4.756 10.028,4.374 0.116,-0.015 0.233,-0.035 0.347,-0.059 M 8.64,16.821 c 1.538,1.386 3.493,2.574 5.136,3.572 0.286,0.172 0.562,0.341 0.83,0.506 1.267,0.778 4.393,2.509 6.539,2.152 -0.015,-0.1 -0.026,-0.202 -0.032,-0.307 -0.642,-0.421 -1.854,-1.013 -3.129,-1.525 L 17.367,20.974 C 15.137,20.088 11.617,18.691 8.64,16.821 M 20.275,4.854 20.433,4.828 C 22.491,4.486 22.896,4.156 22.975,4.057 22.915,3.989 22.857,3.92 22.803,3.854 22.289,3.478 20.974,3.591 20.187,3.659 20.008,3.675 19.861,3.688 19.737,3.695 18.87,3.747 17.807,3.753 16.778,3.761 13.341,3.786 9.105,3.818 6.402,5.18 11.064,6.165 16.49,5.554 20.275,4.854 m -2.657,15.475 0.625,0.249 c 0.727,0.293 2.017,0.84 2.915,1.383 0.043,-0.293 0.117,-0.608 0.224,-0.956 0.306,-0.999 0.741,-1.924 1.162,-2.819 0.703,-1.494 1.361,-2.891 1.46,-4.561 C 24.056,12.749 23.985,11.45 23.917,10.194 23.76,7.294 23.702,5.7 24.255,5.253 23.998,5.072 23.727,4.841 23.445,4.562 23.056,4.951 22.158,5.241 20.547,5.509 L 20.399,5.535 C 16.394,6.274 10.589,6.91 5.698,5.729 5.65,5.717 5.602,5.705 5.552,5.691 5.478,5.744 5.405,5.798 5.335,5.854 5.506,6.31 5.646,6.768 5.75,7.216 c 0.247,1.056 0.241,2.118 0.235,3.145 -0.007,1.488 -0.015,2.894 0.713,4.17 3.22,2.74 8.228,4.729 10.92,5.798 M 3.698,9.234 C 3.657,10.63 4.271,12.032 5.526,13.409 5.283,12.4 5.289,11.365 5.294,10.357 5.299,9.368 5.305,8.347 5.078,7.375 5,7.042 4.902,6.705 4.787,6.369 4.091,7.139 3.735,8.08 3.698,9.234 M 3.735,4.153 C 3.112,3.148 2.357,2.301 1.569,1.732 1.005,1.323 0.618,1.154 0.366,1.091 0.974,2.128 2.273,3.306 3.735,4.153 M 6.641,15.688 C 6.484,15.481 6.339,15.271 6.205,15.056 4.022,13.189 2.947,11.223 3.009,9.213 3.053,7.765 3.557,6.564 4.509,5.644 4.449,5.504 4.387,5.365 4.321,5.228 4.23,5.186 4.142,5.143 4.049,5.096 2.466,4.303 0.579,2.878 -0.262,1.394 c -0.128,0.471 -0.05,1.53 0.83,3.418 0.783,1.68 1.238,3.128 1.637,4.406 0.638,2.033 1.137,3.628 2.63,4.897 0.657,0.558 1.245,1.073 1.806,1.573 M 1.414,-2.099 c 3.948,-1.06 9.815,-1.979 14.427,-1.383 3.464,0.445 7.377,2.482 9.357,4.703 L 26.478,3 c -0.043,0.021 -0.086,0.039 -0.129,0.056 0.134,0.397 0.192,0.784 0.17,1.153 -0.007,0.097 -0.016,0.189 -0.028,0.276 3.647,1.245 6.03,5.214 6.085,10.164 10e-4,0.097 -0.055,9.957 -2.16,12.086 -0.291,0.294 -0.616,0.444 -0.966,0.443 -1.191,0 -2.473,-0.504 -3.7,-0.991 -0.62,-0.246 -1.193,-0.474 -1.749,-0.639 -0.792,-0.235 -1.397,-0.517 -1.849,-0.86 -0.261,0.082 -0.539,0.141 -0.824,0.178 C 18.105,25.274 13.59,22.805 10.756,20.325 9.725,19.422 8.847,18.623 7.998,17.85 L 7.96,17.815 C 6.895,16.843 5.792,15.837 4.388,14.642 2.743,13.243 2.217,11.564 1.551,9.439 1.155,8.178 0.708,6.75 -0.059,5.104 -1.094,2.884 -1.287,1.257 -0.594,0.628 -0.655,0.414 -0.688,0.207 -0.69,0.008 -0.698,-0.694 -0.34,-1.63 1.414,-2.099" /></g></g></g></g></svg>