<?xml version="1.0" encoding="UTF-8" standalone="no"?>
<!-- Created with Inkscape (http://www.inkscape.org/) -->

<svg
   xmlns:dc="http://purl.org/dc/elements/1.1/"
   xmlns:cc="http://creativecommons.org/ns#"
   xmlns:rdf="http://www.w3.org/1999/02/22-rdf-syntax-ns#"
   xmlns:svg="http://www.w3.org/2000/svg"
   xmlns="http://www.w3.org/2000/svg"
   xmlns:sodipodi="http://sodipodi.sourceforge.net/DTD/sodipodi-0.dtd"
   xmlns:inkscape="http://www.inkscape.org/namespaces/inkscape"
   version="1.1"
   id="svg2"
   xml:space="preserve"
   width="80"
   height="14.55"
   viewBox="0 0 80 14.55"
   sodipodi:docname="sereno_logo.svg"
   inkscape:version="0.92.5 (2060ec1f9f, 2020-04-08)"><metadata
     id="metadata8"><rdf:RDF><cc:Work
         rdf:about=""><dc:format>image/svg+xml</dc:format><dc:type
           rdf:resource="http://purl.org/dc/dcmitype/StillImage" /><dc:title></dc:title></cc:Work></rdf:RDF></metadata><defs
     id="defs6" /><sodipodi:namedview
     pagecolor="#ffffff"
     bordercolor="#666666"
     borderopacity="1"
     objecttolerance="10"
     gridtolerance="10"
     guidetolerance="10"
     inkscape:pageopacity="0"
     inkscape:pageshadow="2"
     inkscape:window-width="1149"
     inkscape:window-height="634"
     id="namedview4"
     showgrid="false"
     fit-margin-top="0"
     fit-margin-left="0"
     fit-margin-right="0"
     fit-margin-bottom="0"
     inkscape:zoom="12"
     inkscape:cx="32.218498"
     inkscape:cy="8.9367536"
     inkscape:window-x="522"
     inkscape:window-y="194"
     inkscape:window-maximized="0"
     inkscape:current-layer="g10" /><g
     id="g10"
     inkscape:groupmode="layer"
     inkscape:label="ink_ext_XXXXXX"
     transform="matrix(1.3333333,0,0,-1.3333333,-3.5682267,19.24688)"><g
       id="g12"
       transform="matrix(0.0171008,0,0,0.0171008,2.2185236,2.920257)"><path
         d="m 685.313,591.402 c 65.261,0 81.347,-35.937 81.347,-129.554 V 397.563 H 603.988 v 63.339 c 0,94.563 16.067,130.5 81.325,130.5 z M 853.656,319.004 v 138.105 c 0,152.262 -51.058,213.75 -168.343,213.75 -117.262,0 -168.344,-61.488 -168.344,-213.75 V 248.113 c 0,-152.2575 51.082,-212.7849 168.344,-212.7849 109.546,0 168.343,60.7422 167.648,183.8909 h -86.109 c -0.153,-4.078 -0.993,-15.641 -1.172,-19.449 -2.899,-60.957 -23.664,-85.004 -80.367,-85.004 -66.204,0 -81.325,33.089 -81.325,133.347 v 70.891 h 249.668"
         style="fill:#c2bcb0;fill-opacity:1;fill-rule:nonzero;stroke:none"
         id="path14"
         inkscape:connector-curvature="0" /><path
         d="m 1532.66,591.305 c 65.26,0 81.34,-35.938 81.34,-129.563 v -64.277 h -162.66 v 63.336 c 0,94.566 16.06,130.504 81.32,130.504 z m 168.35,-272.399 v 138.106 c 0,152.261 -51.06,213.75 -168.35,213.75 -117.26,0 -168.34,-61.489 -168.34,-213.75 v -209 c 0,-152.2581 51.08,-212.7854 168.34,-212.7854 109.55,0 168.35,60.7461 167.64,183.8944 h -86.1 c -0.16,-4.082 -0.99,-15.641 -1.18,-19.449 -2.89,-60.961 -23.65,-85.008 -80.36,-85.008 -66.2,0 -81.32,33.094 -81.32,133.348 v 70.894 h 249.67"
         style="fill:#c2bcb0;fill-opacity:1;fill-rule:nonzero;stroke:none"
         id="path16"
         inkscape:connector-curvature="0" /><path
         d="m 2610.62,248.063 v 216.582 c 0,93.617 -16.08,129.554 -81.34,129.554 -65.26,0 -81.32,-35.937 -81.32,-130.5 V 250.914 c 0,-100.262 15.12,-133.351 81.32,-133.351 66.2,0 81.34,33.089 81.34,130.5 z m 87.01,211.843 V 250.914 c 0,-152.2656 -51.07,-212.7929 -168.35,-212.7929 -117.27,0 -168.34,60.5273 -168.34,212.7929 v 208.992 c 0,152.262 51.07,213.75 168.34,213.75 117.28,0 168.35,-61.488 168.35,-213.75"
         style="fill:#c2bcb0;fill-opacity:1;fill-rule:nonzero;stroke:none"
         id="path18"
         inkscape:connector-curvature="0" /><path
         d="m 1949.95,48.5195 c -0.18,6.7618 -0.3,13.7696 -0.3,21.2774 V 463.699 c 0,94.563 16.06,130.5 81.32,130.5 65.26,0 81.34,-35.937 81.34,-129.554 V 66.9492 c 0,-6.4375 -0.07,-12.5508 -0.22,-18.4297 h 86.76 c 0.24,6.9453 0.47,13.9063 0.47,21.2774 V 459.91 c 0,152.262 -51.07,213.754 -168.35,213.754 -117.26,0 -168.34,-61.492 -168.34,-213.754 V 69.7969 c 0,-7.3711 0.22,-14.3321 0.47,-21.2774 h 86.85"
         style="fill:#c2bcb0;fill-opacity:1;fill-rule:nonzero;stroke:none"
         id="path20"
         inkscape:connector-curvature="0" /><path
         d="m 3535.37,319.039 h -676.12 v 78.563 h 676.12 v -78.563"
         style="fill:#c2bcb0;fill-opacity:1;fill-rule:nonzero;stroke:none"
         id="path22"
         inkscape:connector-curvature="0" /><path
         d="m 213.047,397.504 c -69.027,14.18 -92.676,41.617 -92.676,104.973 0,60.527 22.688,91.734 73.766,91.734 51.004,0 72.777,-27.516 73.601,-92.816 l 87.614,17.824 c -5.137,107.656 -51.028,154.449 -161.215,154.449 -109.7034,0 -160.7893,-64.316 -160.7893,-171.191 0,-108.762 46.3515,-154.149 141.8793,-174.961 82.261,-17.973 102.14,-48.239 102.14,-106.864 0,-72.816 -22.703,-103.078 -82.289,-103.078 -51.957,0 -78.359,23.867 -80.199,95.871 L 26.7617,193.129 C 34.2148,78.082 89.0039,38.1289 195.078,38.1289 c 110.645,0 169.285,50.125 169.285,183.4731 0,101.195 -34.992,151.32 -151.316,175.902"
         style="fill:#c2bcb0;fill-opacity:1;fill-rule:nonzero;stroke:none"
         id="path24"
         inkscape:connector-curvature="0" /><path
         d="m 1264.93,580.063 c -40.66,0 -139.01,-13.747 -162.65,-41.161 V 53.7227 h -87 V 658.051 h 62.41 l 14.18,-37.824 c 26.49,28.378 130.5,47.777 173.06,47.777 v -87.941"
         style="fill:#c2bcb0;fill-opacity:1;fill-rule:nonzero;stroke:none"
         id="path26"
         inkscape:connector-curvature="0" /></g></g></svg>